<svg xmlns="http://www.w3.org/2000/svg" id="export" class="canvas" preserveAspectRatio="xMidYMid meet" style="" width="155" height="1020"><rect id="background" fill="#fff" pointer-events="all" width="155" height="1020"/><g id="origin" transform="translate(7.0372314453125, 7.0372314453125) scale(1)"><g id="clusters" class="clusters"/><g id="edge-paths" class="edge-paths"><defs><marker id="arrowhead" viewBox="0 0 10 10" refX="9" refY="5" markerUnits="strokeWidth" markerWidth="8" markerHeight="6" orient="auto" style="fill: rgb(0, 0, 0);"><path d="M 0 0 L 10 5 L 0 10 L 4 5 z" style="stroke-width: 1;"/></marker><marker id="arrowhead-select" viewBox="0 0 10 10" refX="9" refY="5" markerUnits="strokeWidth" markerWidth="8" markerHeight="6" orient="auto" style="fill: rgba(220, 0, 0, 0.9);"><path d="M 0 0 L 10 5 L 0 10 L 4 5 z" style="stroke-width: 1;"/></marker><marker id="arrowhead-hover" viewBox="0 0 10 10" refX="9" refY="5" markerUnits="strokeWidth" markerWidth="8" markerHeight="6" orient="auto" style="fill: rgba(220, 0, 0, 0.9);"><path d="M 0 0 L 10 5 L 0 10 L 4 5 z" style="stroke-width: 1;"/></marker></defs><path id="edge-bidirectional_input" class="edge-path" d="M52.19970703125,23L52.19970703125,24.666666666666668C52.19970703125,26.333333333333332,52.19970703125,29.666666666666668,52.19970703125,35C52.19970703125,40.333333333333336,52.19970703125,47.666666666666664,52.19970703125,55C52.19970703125,62.333333333333336,52.19970703125,69.66666666666667,52.19970703125,75C52.19970703125,80.33333333333333,52.19970703125,83.66666666666667,52.19970703125,85.33333333333333L52.19970703125,87" style="stroke: rgb(0, 0, 0); stroke-width: 1px; fill: none; marker-end: url(&quot;#arrowhead&quot;);"/><path class="edge-path-hit-test" d="M52.19970703125,23L52.19970703125,24.666666666666668C52.19970703125,26.333333333333332,52.19970703125,29.666666666666668,52.19970703125,35C52.19970703125,40.333333333333336,52.19970703125,47.666666666666664,52.19970703125,55C52.19970703125,62.333333333333336,52.19970703125,69.66666666666667,52.19970703125,75C52.19970703125,80.33333333333333,52.19970703125,83.66666666666667,52.19970703125,85.33333333333333L52.19970703125,87" style="pointer-events: stroke; stroke-width: 0.5em; fill: none; stroke: rgb(0, 0, 0); stroke-opacity: 0.001;"/><path id="edge-bidirectional" class="edge-path" d="M52.19970703125,176L52.19970703125,179.66666666666666C52.19970703125,183.33333333333334,52.19970703125,190.66666666666666,52.19970703125,198C52.19970703125,205.33333333333334,52.19970703125,212.66666666666666,52.19970703125,216.33333333333334L52.19970703125,220" style="stroke: rgb(0, 0, 0); stroke-width: 1px; fill: none; marker-end: url(&quot;#arrowhead&quot;);"/><path class="edge-path-hit-test" d="M52.19970703125,176L52.19970703125,179.66666666666666C52.19970703125,183.33333333333334,52.19970703125,190.66666666666666,52.19970703125,198C52.19970703125,205.33333333333334,52.19970703125,212.66666666666666,52.19970703125,216.33333333333334L52.19970703125,220" style="pointer-events: stroke; stroke-width: 0.5em; fill: none; stroke: rgb(0, 0, 0); stroke-opacity: 0.001;"/><path id="edge-bidirectional_1" class="edge-path" d="M52.19970703125,309L52.19970703125,312.6666666666667C52.19970703125,316.3333333333333,52.19970703125,323.6666666666667,52.19970703125,331C52.19970703125,338.3333333333333,52.19970703125,345.6666666666667,52.19970703125,349.3333333333333L52.19970703125,353" style="stroke: rgb(0, 0, 0); stroke-width: 1px; fill: none; marker-end: url(&quot;#arrowhead&quot;);"/><path class="edge-path-hit-test" d="M52.19970703125,309L52.19970703125,312.6666666666667C52.19970703125,316.3333333333333,52.19970703125,323.6666666666667,52.19970703125,331C52.19970703125,338.3333333333333,52.19970703125,345.6666666666667,52.19970703125,349.3333333333333L52.19970703125,353" style="pointer-events: stroke; stroke-width: 0.5em; fill: none; stroke: rgb(0, 0, 0); stroke-opacity: 0.001;"/><path id="edge-bidirectional_2" class="edge-path" d="M52.19970703125,442L52.19970703125,445.6666666666667C52.19970703125,449.3333333333333,52.19970703125,456.6666666666667,52.19970703125,464C52.19970703125,471.3333333333333,52.19970703125,478.6666666666667,52.19970703125,482.3333333333333L52.19970703125,486" style="stroke: rgb(0, 0, 0); stroke-width: 1px; fill: none; marker-end: url(&quot;#arrowhead&quot;);"/><path class="edge-path-hit-test" d="M52.19970703125,442L52.19970703125,445.6666666666667C52.19970703125,449.3333333333333,52.19970703125,456.6666666666667,52.19970703125,464C52.19970703125,471.3333333333333,52.19970703125,478.6666666666667,52.19970703125,482.3333333333333L52.19970703125,486" style="pointer-events: stroke; stroke-width: 0.5em; fill: none; stroke: rgb(0, 0, 0); stroke-opacity: 0.001;"/><path id="edge-dense" class="edge-path" d="M52.19970703125,566L52.19970703125,569.6666666666666C52.19970703125,573.3333333333334,52.19970703125,580.6666666666666,52.19970703125,588C52.19970703125,595.3333333333334,52.19970703125,602.6666666666666,52.19970703125,606.3333333333334L52.19970703125,610" style="stroke: rgb(0, 0, 0); stroke-width: 1px; fill: none; marker-end: url(&quot;#arrowhead&quot;);"/><path class="edge-path-hit-test" d="M52.19970703125,566L52.19970703125,569.6666666666666C52.19970703125,573.3333333333334,52.19970703125,580.6666666666666,52.19970703125,588C52.19970703125,595.3333333333334,52.19970703125,602.6666666666666,52.19970703125,606.3333333333334L52.19970703125,610" style="pointer-events: stroke; stroke-width: 0.5em; fill: none; stroke: rgb(0, 0, 0); stroke-opacity: 0.001;"/><path id="edge-dense_1" class="edge-path" d="M52.19970703125,690L52.19970703125,693.6666666666666C52.19970703125,697.3333333333334,52.19970703125,704.6666666666666,52.19970703125,712C52.19970703125,719.3333333333334,52.19970703125,726.6666666666666,52.19970703125,730.3333333333334L52.19970703125,734" style="stroke: rgb(0, 0, 0); stroke-width: 1px; fill: none; marker-end: url(&quot;#arrowhead&quot;);"/><path class="edge-path-hit-test" d="M52.19970703125,690L52.19970703125,693.6666666666666C52.19970703125,697.3333333333334,52.19970703125,704.6666666666666,52.19970703125,712C52.19970703125,719.3333333333334,52.19970703125,726.6666666666666,52.19970703125,730.3333333333334L52.19970703125,734" style="pointer-events: stroke; stroke-width: 0.5em; fill: none; stroke: rgb(0, 0, 0); stroke-opacity: 0.001;"/><path id="edge-dense_2" class="edge-path" d="M52.19970703125,814L52.19970703125,817.6666666666666C52.19970703125,821.3333333333334,52.19970703125,828.6666666666666,52.19970703125,836C52.19970703125,843.3333333333334,52.19970703125,850.6666666666666,52.19970703125,854.3333333333334L52.19970703125,858" style="stroke: rgb(0, 0, 0); stroke-width: 1px; fill: none; marker-end: url(&quot;#arrowhead&quot;);"/><path class="edge-path-hit-test" d="M52.19970703125,814L52.19970703125,817.6666666666666C52.19970703125,821.3333333333334,52.19970703125,828.6666666666666,52.19970703125,836C52.19970703125,843.3333333333334,52.19970703125,850.6666666666666,52.19970703125,854.3333333333334L52.19970703125,858" style="pointer-events: stroke; stroke-width: 0.5em; fill: none; stroke: rgb(0, 0, 0); stroke-opacity: 0.001;"/><path id="edge-dense_3" class="edge-path" d="M52.19970703125,938L52.19970703125,941.6666666666666C52.19970703125,945.3333333333334,52.19970703125,952.6666666666666,52.19970703125,960C52.19970703125,967.3333333333334,52.19970703125,974.6666666666666,52.19970703125,978.3333333333334L52.19970703125,982" style="stroke: rgb(0, 0, 0); stroke-width: 1px; fill: none; marker-end: url(&quot;#arrowhead&quot;);"/><path class="edge-path-hit-test" d="M52.19970703125,938L52.19970703125,941.6666666666666C52.19970703125,945.3333333333334,52.19970703125,952.6666666666666,52.19970703125,960C52.19970703125,967.3333333333334,52.19970703125,974.6666666666666,52.19970703125,978.3333333333334L52.19970703125,982" style="pointer-events: stroke; stroke-width: 0.5em; fill: none; stroke: rgb(0, 0, 0); stroke-opacity: 0.001;"/></g><g id="edge-labels" class="edge-labels"><text class="edge-label" id="edge-label-edge-bidirectional_input" style="opacity: 1; font-family: -apple-system, BlinkMacSystemFont, &quot;Segoe WPC&quot;, &quot;Segoe UI&quot;, Ubuntu, &quot;Droid Sans&quot;, sans-serif, &quot;PingFang SC&quot;; font-size: 10px;" transform="translate(57.19970703125,48)"><tspan xml:space="preserve" dy="1em" x="1">bidirectional_input</tspan></text><text class="edge-label" id="edge-label-edge-bidirectional" style="opacity: 1; font-family: -apple-system, BlinkMacSystemFont, &quot;Segoe WPC&quot;, &quot;Segoe UI&quot;, Ubuntu, &quot;Droid Sans&quot;, sans-serif, &quot;PingFang SC&quot;; font-size: 10px;" transform="translate(57.19970703125,191)"><tspan xml:space="preserve" dy="1em" x="1">bidirectional</tspan></text><text class="edge-label" id="edge-label-edge-bidirectional_1" style="opacity: 1; font-family: -apple-system, BlinkMacSystemFont, &quot;Segoe WPC&quot;, &quot;Segoe UI&quot;, Ubuntu, &quot;Droid Sans&quot;, sans-serif, &quot;PingFang SC&quot;; font-size: 10px;" transform="translate(57.19970703125,324)"><tspan xml:space="preserve" dy="1em" x="1">bidirectional_1</tspan></text><text class="edge-label" id="edge-label-edge-bidirectional_2" style="opacity: 1; font-family: -apple-system, BlinkMacSystemFont, &quot;Segoe WPC&quot;, &quot;Segoe UI&quot;, Ubuntu, &quot;Droid Sans&quot;, sans-serif, &quot;PingFang SC&quot;; font-size: 10px;" transform="translate(57.19970703125,457)"><tspan xml:space="preserve" dy="1em" x="1">bidirectional_2</tspan></text><text class="edge-label" id="edge-label-edge-dense" style="opacity: 1; font-family: -apple-system, BlinkMacSystemFont, &quot;Segoe WPC&quot;, &quot;Segoe UI&quot;, Ubuntu, &quot;Droid Sans&quot;, sans-serif, &quot;PingFang SC&quot;; font-size: 10px;" transform="translate(57.19970703125,581)"><tspan xml:space="preserve" dy="1em" x="1">dense</tspan></text><text class="edge-label" id="edge-label-edge-dense_1" style="opacity: 1; font-family: -apple-system, BlinkMacSystemFont, &quot;Segoe WPC&quot;, &quot;Segoe UI&quot;, Ubuntu, &quot;Droid Sans&quot;, sans-serif, &quot;PingFang SC&quot;; font-size: 10px;" transform="translate(57.19970703125,705)"><tspan xml:space="preserve" dy="1em" x="1">dense_1</tspan></text><text class="edge-label" id="edge-label-edge-dense_2" style="opacity: 1; font-family: -apple-system, BlinkMacSystemFont, &quot;Segoe WPC&quot;, &quot;Segoe UI&quot;, Ubuntu, &quot;Droid Sans&quot;, sans-serif, &quot;PingFang SC&quot;; font-size: 10px;" transform="translate(57.19970703125,829)"><tspan xml:space="preserve" dy="1em" x="1">dense_2</tspan></text><text class="edge-label" id="edge-label-edge-dense_3" style="opacity: 1; font-family: -apple-system, BlinkMacSystemFont, &quot;Segoe WPC&quot;, &quot;Segoe UI&quot;, Ubuntu, &quot;Droid Sans&quot;, sans-serif, &quot;PingFang SC&quot;; font-size: 10px;" transform="translate(57.19970703125,953)"><tspan xml:space="preserve" dy="1em" x="1">dense_3</tspan></text></g><g id="nodes" class="nodes"><g id="input-name-bidirectional_input" class="node graph-input" style="" transform="translate(0,0)"><g class="node-item graph-item-input" transform="translate(0,0)"><path d="M5,0h94.3994140625a5,5 0 0 1 5,5v13a5,5 0 0 1 -5,5h-94.3994140625a5,5 0 0 1 -5,-5v-13a5,5 0 0 1 5,-5z" style="stroke: rgb(0, 0, 0); fill: rgb(238, 238, 238); stroke-width: 0;"/><text x="6" y="16" style="font-family: -apple-system, BlinkMacSystemFont, &quot;Segoe WPC&quot;, &quot;Segoe UI&quot;, Ubuntu, &quot;Droid Sans&quot;, sans-serif, &quot;PingFang SC&quot;; font-size: 11px; text-rendering: geometricprecision; user-select: none;">bidirectional_input</text><title>float32[?,100,100]</title></g><path class="node node-border" d="M5,0h94.3994140625a5,5 0 0 1 5,5v13a5,5 0 0 1 -5,5h-94.3994140625a5,5 0 0 1 -5,-5v-13a5,5 0 0 1 5,-5z" style="stroke: rgb(51, 51, 51); fill: none; stroke-width: 1px;"/></g><g id="node-name-bidirectional" class="node graph-node" style="" transform="translate(14.69970703125,87)"><g class="node-item node-item-type node-item-type-wrapper" transform="translate(0,0)"><path d="M5,0h65a5,5 0 0 1 5,5v18a0,0 0 0 1 0,0h-75a0,0 0 0 1 0,0v-18a5,5 0 0 1 5,-5z" style="stroke: rgb(0, 0, 0); fill: rgb(238, 238, 238); stroke-width: 0;"/><text x="6" y="16" style="font-family: -apple-system, BlinkMacSystemFont, &quot;Segoe WPC&quot;, &quot;Segoe UI&quot;, Ubuntu, &quot;Droid Sans&quot;, sans-serif, &quot;PingFang SC&quot;; font-size: 11px; text-rendering: geometricprecision; user-select: none; fill: rgb(0, 0, 0);">bidirectional</text><title>Bidirectional</title></g><g class="node-argument-list" transform="translate(0,23)"><path d="M0,0h75a0,0 0 0 1 0,0v20a0,0 0 0 1 0,0h-75a0,0 0 0 1 0,0v-20a0,0 0 0 1 0,0z" style="stroke: rgb(0, 0, 0); fill: rgb(255, 255, 255); stroke-width: 0;"/><g class="node-argument"><rect rx="3" ry="3" x="3" y="3" width="69" height="14" style="fill: transparent;"/><text xml:space="preserve" x="6" y="14" style="font-family: -apple-system, BlinkMacSystemFont, &quot;Segoe WPC&quot;, &quot;Segoe UI&quot;, Ubuntu, &quot;Droid Sans&quot;, sans-serif, &quot;PingFang SC&quot;; font-size: 9px; font-weight: normal; text-rendering: geometricprecision; user-select: none;"><tspan style="font-weight: bold;">〈…〉</tspan><tspan/></text></g><line class="node" x1="0" x2="75" y1="0" y2="0" style="stroke: rgb(51, 51, 51); fill: none; stroke-width: 1px;"/></g><g class="node-item node-item-type node-item-type-layer" transform="translate(0,43)"><path d="M0,0h75a0,0 0 0 1 0,0v23a0,0 0 0 1 0,0h-75a0,0 0 0 1 0,0v-23a0,0 0 0 1 0,0z" style="stroke: rgb(0, 0, 0); fill: rgb(51, 85, 136); stroke-width: 0;"/><text x="6" y="16" style="font-family: -apple-system, BlinkMacSystemFont, &quot;Segoe WPC&quot;, &quot;Segoe UI&quot;, Ubuntu, &quot;Droid Sans&quot;, sans-serif, &quot;PingFang SC&quot;; font-size: 11px; text-rendering: geometricprecision; user-select: none; fill: rgb(255, 255, 255);">lstm</text><title>LSTM</title></g><line class="node" x1="0" x2="75" y1="43" y2="43" style="stroke: rgb(51, 51, 51); fill: none; stroke-width: 1px;"/><g class="node-item node-item-type node-item-type-activation" transform="translate(0,66)"><path d="M0,0h75a0,0 0 0 1 0,0v18a5,5 0 0 1 -5,5h-65a5,5 0 0 1 -5,-5v-18a0,0 0 0 1 0,0z" style="stroke: rgb(0, 0, 0); fill: rgb(112, 41, 33); stroke-width: 0;"/><text x="6" y="16" style="font-family: -apple-system, BlinkMacSystemFont, &quot;Segoe WPC&quot;, &quot;Segoe UI&quot;, Ubuntu, &quot;Droid Sans&quot;, sans-serif, &quot;PingFang SC&quot;; font-size: 11px; text-rendering: geometricprecision; user-select: none; fill: rgb(255, 255, 255);">Activation</text></g><line class="node" x1="0" x2="75" y1="66" y2="66" style="stroke: rgb(51, 51, 51); fill: none; stroke-width: 1px;"/><path class="node node-border" d="M5,0h65a5,5 0 0 1 5,5v79a5,5 0 0 1 -5,5h-65a5,5 0 0 1 -5,-5v-79a5,5 0 0 1 5,-5z" style="stroke: rgb(51, 51, 51); fill: none; stroke-width: 1px;"/></g><g id="node-name-bidirectional_1" class="node graph-node" style="" transform="translate(9.82470703125,220)"><g class="node-item node-item-type node-item-type-wrapper" transform="translate(0,0)"><path d="M5,0h74.75a5,5 0 0 1 5,5v18a0,0 0 0 1 0,0h-84.75a0,0 0 0 1 0,0v-18a5,5 0 0 1 5,-5z" style="stroke: rgb(0, 0, 0); fill: rgb(238, 238, 238); stroke-width: 0;"/><text x="6" y="16" style="font-family: -apple-system, BlinkMacSystemFont, &quot;Segoe WPC&quot;, &quot;Segoe UI&quot;, Ubuntu, &quot;Droid Sans&quot;, sans-serif, &quot;PingFang SC&quot;; font-size: 11px; text-rendering: geometricprecision; user-select: none; fill: rgb(0, 0, 0);">bidirectional_1</text><title>Bidirectional</title></g><g class="node-argument-list" transform="translate(0,23)"><path d="M0,0h84.75a0,0 0 0 1 0,0v20a0,0 0 0 1 0,0h-84.75a0,0 0 0 1 0,0v-20a0,0 0 0 1 0,0z" style="stroke: rgb(0, 0, 0); fill: rgb(255, 255, 255); stroke-width: 0;"/><g class="node-argument"><rect rx="3" ry="3" x="3" y="3" width="78.75" height="14" style="fill: transparent;"/><text xml:space="preserve" x="6" y="14" style="font-family: -apple-system, BlinkMacSystemFont, &quot;Segoe WPC&quot;, &quot;Segoe UI&quot;, Ubuntu, &quot;Droid Sans&quot;, sans-serif, &quot;PingFang SC&quot;; font-size: 9px; font-weight: normal; text-rendering: geometricprecision; user-select: none;"><tspan style="font-weight: bold;">〈…〉</tspan><tspan/></text></g><line class="node" x1="0" x2="84.75" y1="0" y2="0" style="stroke: rgb(51, 51, 51); fill: none; stroke-width: 1px;"/></g><g class="node-item node-item-type node-item-type-layer" transform="translate(0,43)"><path d="M0,0h84.75a0,0 0 0 1 0,0v23a0,0 0 0 1 0,0h-84.75a0,0 0 0 1 0,0v-23a0,0 0 0 1 0,0z" style="stroke: rgb(0, 0, 0); fill: rgb(51, 85, 136); stroke-width: 0;"/><text x="6" y="16" style="font-family: -apple-system, BlinkMacSystemFont, &quot;Segoe WPC&quot;, &quot;Segoe UI&quot;, Ubuntu, &quot;Droid Sans&quot;, sans-serif, &quot;PingFang SC&quot;; font-size: 11px; text-rendering: geometricprecision; user-select: none; fill: rgb(255, 255, 255);">lstm_1</text><title>LSTM</title></g><line class="node" x1="0" x2="84.75" y1="43" y2="43" style="stroke: rgb(51, 51, 51); fill: none; stroke-width: 1px;"/><g class="node-item node-item-type node-item-type-activation" transform="translate(0,66)"><path d="M0,0h84.75a0,0 0 0 1 0,0v18a5,5 0 0 1 -5,5h-74.75a5,5 0 0 1 -5,-5v-18a0,0 0 0 1 0,0z" style="stroke: rgb(0, 0, 0); fill: rgb(112, 41, 33); stroke-width: 0;"/><text x="6" y="16" style="font-family: -apple-system, BlinkMacSystemFont, &quot;Segoe WPC&quot;, &quot;Segoe UI&quot;, Ubuntu, &quot;Droid Sans&quot;, sans-serif, &quot;PingFang SC&quot;; font-size: 11px; text-rendering: geometricprecision; user-select: none; fill: rgb(255, 255, 255);">Activation</text></g><line class="node" x1="0" x2="84.75" y1="66" y2="66" style="stroke: rgb(51, 51, 51); fill: none; stroke-width: 1px;"/><path class="node node-border" d="M5,0h74.75a5,5 0 0 1 5,5v79a5,5 0 0 1 -5,5h-74.75a5,5 0 0 1 -5,-5v-79a5,5 0 0 1 5,-5z" style="stroke: rgb(51, 51, 51); fill: none; stroke-width: 1px;"/></g><g id="node-name-bidirectional_2" class="node graph-node" style="" transform="translate(9.79052734375,353)"><g class="node-item node-item-type node-item-type-wrapper" transform="translate(0,0)"><path d="M5,0h74.818359375a5,5 0 0 1 5,5v18a0,0 0 0 1 0,0h-84.818359375a0,0 0 0 1 0,0v-18a5,5 0 0 1 5,-5z" style="stroke: rgb(0, 0, 0); fill: rgb(238, 238, 238); stroke-width: 0;"/><text x="6" y="16" style="font-family: -apple-system, BlinkMacSystemFont, &quot;Segoe WPC&quot;, &quot;Segoe UI&quot;, Ubuntu, &quot;Droid Sans&quot;, sans-serif, &quot;PingFang SC&quot;; font-size: 11px; text-rendering: geometricprecision; user-select: none; fill: rgb(0, 0, 0);">bidirectional_2</text><title>Bidirectional</title></g><g class="node-argument-list" transform="translate(0,23)"><path d="M0,0h84.818359375a0,0 0 0 1 0,0v20a0,0 0 0 1 0,0h-84.818359375a0,0 0 0 1 0,0v-20a0,0 0 0 1 0,0z" style="stroke: rgb(0, 0, 0); fill: rgb(255, 255, 255); stroke-width: 0;"/><g class="node-argument"><rect rx="3" ry="3" x="3" y="3" width="78.818359375" height="14" style="fill: transparent;"/><text xml:space="preserve" x="6" y="14" style="font-family: -apple-system, BlinkMacSystemFont, &quot;Segoe WPC&quot;, &quot;Segoe UI&quot;, Ubuntu, &quot;Droid Sans&quot;, sans-serif, &quot;PingFang SC&quot;; font-size: 9px; font-weight: normal; text-rendering: geometricprecision; user-select: none;"><tspan style="font-weight: bold;">〈…〉</tspan><tspan/></text></g><line class="node" x1="0" x2="84.818359375" y1="0" y2="0" style="stroke: rgb(51, 51, 51); fill: none; stroke-width: 1px;"/></g><g class="node-item node-item-type node-item-type-layer" transform="translate(0,43)"><path d="M0,0h84.818359375a0,0 0 0 1 0,0v23a0,0 0 0 1 0,0h-84.818359375a0,0 0 0 1 0,0v-23a0,0 0 0 1 0,0z" style="stroke: rgb(0, 0, 0); fill: rgb(51, 85, 136); stroke-width: 0;"/><text x="6" y="16" style="font-family: -apple-system, BlinkMacSystemFont, &quot;Segoe WPC&quot;, &quot;Segoe UI&quot;, Ubuntu, &quot;Droid Sans&quot;, sans-serif, &quot;PingFang SC&quot;; font-size: 11px; text-rendering: geometricprecision; user-select: none; fill: rgb(255, 255, 255);">lstm_2</text><title>LSTM</title></g><line class="node" x1="0" x2="84.818359375" y1="43" y2="43" style="stroke: rgb(51, 51, 51); fill: none; stroke-width: 1px;"/><g class="node-item node-item-type node-item-type-activation" transform="translate(0,66)"><path d="M0,0h84.818359375a0,0 0 0 1 0,0v18a5,5 0 0 1 -5,5h-74.818359375a5,5 0 0 1 -5,-5v-18a0,0 0 0 1 0,0z" style="stroke: rgb(0, 0, 0); fill: rgb(112, 41, 33); stroke-width: 0;"/><text x="6" y="16" style="font-family: -apple-system, BlinkMacSystemFont, &quot;Segoe WPC&quot;, &quot;Segoe UI&quot;, Ubuntu, &quot;Droid Sans&quot;, sans-serif, &quot;PingFang SC&quot;; font-size: 11px; text-rendering: geometricprecision; user-select: none; fill: rgb(255, 255, 255);">Activation</text></g><line class="node" x1="0" x2="84.818359375" y1="66" y2="66" style="stroke: rgb(51, 51, 51); fill: none; stroke-width: 1px;"/><path class="node node-border" d="M5,0h74.818359375a5,5 0 0 1 5,5v79a5,5 0 0 1 -5,5h-74.818359375a5,5 0 0 1 -5,-5v-79a5,5 0 0 1 5,-5z" style="stroke: rgb(51, 51, 51); fill: none; stroke-width: 1px;"/></g><g id="node-name-dense" class="node graph-node" style="" transform="translate(6.42626953125,486)"><g class="node-item node-item-type node-item-type-layer" transform="translate(0,0)"><path d="M5,0h81.546875a5,5 0 0 1 5,5v18a0,0 0 0 1 0,0h-91.546875a0,0 0 0 1 0,0v-18a5,5 0 0 1 5,-5z" style="stroke: rgb(0, 0, 0); fill: rgb(51, 85, 136); stroke-width: 0;"/><text x="6" y="16" style="font-family: -apple-system, BlinkMacSystemFont, &quot;Segoe WPC&quot;, &quot;Segoe UI&quot;, Ubuntu, &quot;Droid Sans&quot;, sans-serif, &quot;PingFang SC&quot;; font-size: 11px; text-rendering: geometricprecision; user-select: none; fill: rgb(255, 255, 255);">dense</text><title>Dense</title></g><g class="node-argument-list" transform="translate(0,23)"><path d="M0,0h91.546875a0,0 0 0 1 0,0v34a0,0 0 0 1 0,0h-91.546875a0,0 0 0 1 0,0v-34a0,0 0 0 1 0,0z" style="stroke: rgb(0, 0, 0); fill: rgb(255, 255, 255); stroke-width: 0;"/><g class="node-argument"><rect rx="3" ry="3" x="3" y="3" width="85.546875" height="14" style="fill: transparent;"/><text xml:space="preserve" x="6" y="14" style="font-family: -apple-system, BlinkMacSystemFont, &quot;Segoe WPC&quot;, &quot;Segoe UI&quot;, Ubuntu, &quot;Droid Sans&quot;, sans-serif, &quot;PingFang SC&quot;; font-size: 9px; font-weight: normal; text-rendering: geometricprecision; user-select: none;"><title>float32[512,256]</title><tspan style="font-weight: bold;">kernel</tspan><tspan>〈512×256〉</tspan></text></g><g class="node-argument"><rect rx="3" ry="3" x="3" y="17" width="85.546875" height="14" style="fill: transparent;"/><text xml:space="preserve" x="6" y="28" style="font-family: -apple-system, BlinkMacSystemFont, &quot;Segoe WPC&quot;, &quot;Segoe UI&quot;, Ubuntu, &quot;Droid Sans&quot;, sans-serif, &quot;PingFang SC&quot;; font-size: 9px; font-weight: normal; text-rendering: geometricprecision; user-select: none;"><title>float32[256]</title><tspan style="font-weight: bold;">bias</tspan><tspan>〈256〉</tspan></text></g><line class="node" x1="0" x2="91.546875" y1="0" y2="0" style="stroke: rgb(51, 51, 51); fill: none; stroke-width: 1px;"/></g><g class="node-item node-item-type node-item-type-activation" transform="translate(0,57)"><path d="M0,0h91.546875a0,0 0 0 1 0,0v18a5,5 0 0 1 -5,5h-81.546875a5,5 0 0 1 -5,-5v-18a0,0 0 0 1 0,0z" style="stroke: rgb(0, 0, 0); fill: rgb(112, 41, 33); stroke-width: 0;"/><text x="6" y="16" style="font-family: -apple-system, BlinkMacSystemFont, &quot;Segoe WPC&quot;, &quot;Segoe UI&quot;, Ubuntu, &quot;Droid Sans&quot;, sans-serif, &quot;PingFang SC&quot;; font-size: 11px; text-rendering: geometricprecision; user-select: none; fill: rgb(255, 255, 255);">Activation</text></g><line class="node" x1="0" x2="91.546875" y1="57" y2="57" style="stroke: rgb(51, 51, 51); fill: none; stroke-width: 1px;"/><path class="node node-border" d="M5,0h81.546875a5,5 0 0 1 5,5v70a5,5 0 0 1 -5,5h-81.546875a5,5 0 0 1 -5,-5v-70a5,5 0 0 1 5,-5z" style="stroke: rgb(51, 51, 51); fill: none; stroke-width: 1px;"/></g><g id="node-name-dense_1" class="node graph-node" style="" transform="translate(6.42626953125,610)"><g class="node-item node-item-type node-item-type-layer" transform="translate(0,0)"><path d="M5,0h81.546875a5,5 0 0 1 5,5v18a0,0 0 0 1 0,0h-91.546875a0,0 0 0 1 0,0v-18a5,5 0 0 1 5,-5z" style="stroke: rgb(0, 0, 0); fill: rgb(51, 85, 136); stroke-width: 0;"/><text x="6" y="16" style="font-family: -apple-system, BlinkMacSystemFont, &quot;Segoe WPC&quot;, &quot;Segoe UI&quot;, Ubuntu, &quot;Droid Sans&quot;, sans-serif, &quot;PingFang SC&quot;; font-size: 11px; text-rendering: geometricprecision; user-select: none; fill: rgb(255, 255, 255);">dense_1</text><title>Dense</title></g><g class="node-argument-list" transform="translate(0,23)"><path d="M0,0h91.546875a0,0 0 0 1 0,0v34a0,0 0 0 1 0,0h-91.546875a0,0 0 0 1 0,0v-34a0,0 0 0 1 0,0z" style="stroke: rgb(0, 0, 0); fill: rgb(255, 255, 255); stroke-width: 0;"/><g class="node-argument"><rect rx="3" ry="3" x="3" y="3" width="85.546875" height="14" style="fill: transparent;"/><text xml:space="preserve" x="6" y="14" style="font-family: -apple-system, BlinkMacSystemFont, &quot;Segoe WPC&quot;, &quot;Segoe UI&quot;, Ubuntu, &quot;Droid Sans&quot;, sans-serif, &quot;PingFang SC&quot;; font-size: 9px; font-weight: normal; text-rendering: geometricprecision; user-select: none;"><title>float32[256,128]</title><tspan style="font-weight: bold;">kernel</tspan><tspan>〈256×128〉</tspan></text></g><g class="node-argument"><rect rx="3" ry="3" x="3" y="17" width="85.546875" height="14" style="fill: transparent;"/><text xml:space="preserve" x="6" y="28" style="font-family: -apple-system, BlinkMacSystemFont, &quot;Segoe WPC&quot;, &quot;Segoe UI&quot;, Ubuntu, &quot;Droid Sans&quot;, sans-serif, &quot;PingFang SC&quot;; font-size: 9px; font-weight: normal; text-rendering: geometricprecision; user-select: none;"><title>float32[128]</title><tspan style="font-weight: bold;">bias</tspan><tspan>〈128〉</tspan></text></g><line class="node" x1="0" x2="91.546875" y1="0" y2="0" style="stroke: rgb(51, 51, 51); fill: none; stroke-width: 1px;"/></g><g class="node-item node-item-type node-item-type-activation" transform="translate(0,57)"><path d="M0,0h91.546875a0,0 0 0 1 0,0v18a5,5 0 0 1 -5,5h-81.546875a5,5 0 0 1 -5,-5v-18a0,0 0 0 1 0,0z" style="stroke: rgb(0, 0, 0); fill: rgb(112, 41, 33); stroke-width: 0;"/><text x="6" y="16" style="font-family: -apple-system, BlinkMacSystemFont, &quot;Segoe WPC&quot;, &quot;Segoe UI&quot;, Ubuntu, &quot;Droid Sans&quot;, sans-serif, &quot;PingFang SC&quot;; font-size: 11px; text-rendering: geometricprecision; user-select: none; fill: rgb(255, 255, 255);">Activation</text></g><line class="node" x1="0" x2="91.546875" y1="57" y2="57" style="stroke: rgb(51, 51, 51); fill: none; stroke-width: 1px;"/><path class="node node-border" d="M5,0h81.546875a5,5 0 0 1 5,5v70a5,5 0 0 1 -5,5h-81.546875a5,5 0 0 1 -5,-5v-70a5,5 0 0 1 5,-5z" style="stroke: rgb(51, 51, 51); fill: none; stroke-width: 1px;"/></g><g id="node-name-dense_2" class="node graph-node" style="" transform="translate(8.85595703125,734)"><g class="node-item node-item-type node-item-type-layer" transform="translate(0,0)"><path d="M5,0h76.6875a5,5 0 0 1 5,5v18a0,0 0 0 1 0,0h-86.6875a0,0 0 0 1 0,0v-18a5,5 0 0 1 5,-5z" style="stroke: rgb(0, 0, 0); fill: rgb(51, 85, 136); stroke-width: 0;"/><text x="6" y="16" style="font-family: -apple-system, BlinkMacSystemFont, &quot;Segoe WPC&quot;, &quot;Segoe UI&quot;, Ubuntu, &quot;Droid Sans&quot;, sans-serif, &quot;PingFang SC&quot;; font-size: 11px; text-rendering: geometricprecision; user-select: none; fill: rgb(255, 255, 255);">dense_2</text><title>Dense</title></g><g class="node-argument-list" transform="translate(0,23)"><path d="M0,0h86.6875a0,0 0 0 1 0,0v34a0,0 0 0 1 0,0h-86.6875a0,0 0 0 1 0,0v-34a0,0 0 0 1 0,0z" style="stroke: rgb(0, 0, 0); fill: rgb(255, 255, 255); stroke-width: 0;"/><g class="node-argument"><rect rx="3" ry="3" x="3" y="3" width="80.6875" height="14" style="fill: transparent;"/><text xml:space="preserve" x="6" y="14" style="font-family: -apple-system, BlinkMacSystemFont, &quot;Segoe WPC&quot;, &quot;Segoe UI&quot;, Ubuntu, &quot;Droid Sans&quot;, sans-serif, &quot;PingFang SC&quot;; font-size: 9px; font-weight: normal; text-rendering: geometricprecision; user-select: none;"><title>float32[128,64]</title><tspan style="font-weight: bold;">kernel</tspan><tspan>〈128×64〉</tspan></text></g><g class="node-argument"><rect rx="3" ry="3" x="3" y="17" width="80.6875" height="14" style="fill: transparent;"/><text xml:space="preserve" x="6" y="28" style="font-family: -apple-system, BlinkMacSystemFont, &quot;Segoe WPC&quot;, &quot;Segoe UI&quot;, Ubuntu, &quot;Droid Sans&quot;, sans-serif, &quot;PingFang SC&quot;; font-size: 9px; font-weight: normal; text-rendering: geometricprecision; user-select: none;"><title>float32[64]</title><tspan style="font-weight: bold;">bias</tspan><tspan>〈64〉</tspan></text></g><line class="node" x1="0" x2="86.6875" y1="0" y2="0" style="stroke: rgb(51, 51, 51); fill: none; stroke-width: 1px;"/></g><g class="node-item node-item-type node-item-type-activation" transform="translate(0,57)"><path d="M0,0h86.6875a0,0 0 0 1 0,0v18a5,5 0 0 1 -5,5h-76.6875a5,5 0 0 1 -5,-5v-18a0,0 0 0 1 0,0z" style="stroke: rgb(0, 0, 0); fill: rgb(112, 41, 33); stroke-width: 0;"/><text x="6" y="16" style="font-family: -apple-system, BlinkMacSystemFont, &quot;Segoe WPC&quot;, &quot;Segoe UI&quot;, Ubuntu, &quot;Droid Sans&quot;, sans-serif, &quot;PingFang SC&quot;; font-size: 11px; text-rendering: geometricprecision; user-select: none; fill: rgb(255, 255, 255);">Activation</text></g><line class="node" x1="0" x2="86.6875" y1="57" y2="57" style="stroke: rgb(51, 51, 51); fill: none; stroke-width: 1px;"/><path class="node node-border" d="M5,0h76.6875a5,5 0 0 1 5,5v70a5,5 0 0 1 -5,5h-76.6875a5,5 0 0 1 -5,-5v-70a5,5 0 0 1 5,-5z" style="stroke: rgb(51, 51, 51); fill: none; stroke-width: 1px;"/></g><g id="node-name-dense_3" class="node graph-node" style="" transform="translate(13.70751953125,858)"><g class="node-item node-item-type node-item-type-layer" transform="translate(0,0)"><path d="M5,0h66.984375a5,5 0 0 1 5,5v18a0,0 0 0 1 0,0h-76.984375a0,0 0 0 1 0,0v-18a5,5 0 0 1 5,-5z" style="stroke: rgb(0, 0, 0); fill: rgb(51, 85, 136); stroke-width: 0;"/><text x="6" y="16" style="font-family: -apple-system, BlinkMacSystemFont, &quot;Segoe WPC&quot;, &quot;Segoe UI&quot;, Ubuntu, &quot;Droid Sans&quot;, sans-serif, &quot;PingFang SC&quot;; font-size: 11px; text-rendering: geometricprecision; user-select: none; fill: rgb(255, 255, 255);">dense_3</text><title>Dense</title></g><g class="node-argument-list" transform="translate(0,23)"><path d="M0,0h76.984375a0,0 0 0 1 0,0v34a0,0 0 0 1 0,0h-76.984375a0,0 0 0 1 0,0v-34a0,0 0 0 1 0,0z" style="stroke: rgb(0, 0, 0); fill: rgb(255, 255, 255); stroke-width: 0;"/><g class="node-argument"><rect rx="3" ry="3" x="3" y="3" width="70.984375" height="14" style="fill: transparent;"/><text xml:space="preserve" x="6" y="14" style="font-family: -apple-system, BlinkMacSystemFont, &quot;Segoe WPC&quot;, &quot;Segoe UI&quot;, Ubuntu, &quot;Droid Sans&quot;, sans-serif, &quot;PingFang SC&quot;; font-size: 9px; font-weight: normal; text-rendering: geometricprecision; user-select: none;"><title>float32[64,1]</title><tspan style="font-weight: bold;">kernel</tspan><tspan>〈64×1〉</tspan></text></g><g class="node-argument"><rect rx="3" ry="3" x="3" y="17" width="70.984375" height="14" style="fill: transparent;"/><text xml:space="preserve" x="6" y="28" style="font-family: -apple-system, BlinkMacSystemFont, &quot;Segoe WPC&quot;, &quot;Segoe UI&quot;, Ubuntu, &quot;Droid Sans&quot;, sans-serif, &quot;PingFang SC&quot;; font-size: 9px; font-weight: normal; text-rendering: geometricprecision; user-select: none;"><title>float32[1]</title><tspan style="font-weight: bold;">bias</tspan><tspan>〈1〉</tspan></text></g><line class="node" x1="0" x2="76.984375" y1="0" y2="0" style="stroke: rgb(51, 51, 51); fill: none; stroke-width: 1px;"/></g><g class="node-item node-item-type node-item-type-activation" transform="translate(0,57)"><path d="M0,0h76.984375a0,0 0 0 1 0,0v18a5,5 0 0 1 -5,5h-66.984375a5,5 0 0 1 -5,-5v-18a0,0 0 0 1 0,0z" style="stroke: rgb(0, 0, 0); fill: rgb(112, 41, 33); stroke-width: 0;"/><text x="6" y="16" style="font-family: -apple-system, BlinkMacSystemFont, &quot;Segoe WPC&quot;, &quot;Segoe UI&quot;, Ubuntu, &quot;Droid Sans&quot;, sans-serif, &quot;PingFang SC&quot;; font-size: 11px; text-rendering: geometricprecision; user-select: none; fill: rgb(255, 255, 255);">Activation</text></g><line class="node" x1="0" x2="76.984375" y1="57" y2="57" style="stroke: rgb(51, 51, 51); fill: none; stroke-width: 1px;"/><path class="node node-border" d="M5,0h66.984375a5,5 0 0 1 5,5v70a5,5 0 0 1 -5,5h-66.984375a5,5 0 0 1 -5,-5v-70a5,5 0 0 1 5,-5z" style="stroke: rgb(51, 51, 51); fill: none; stroke-width: 1px;"/></g><g class="node" style="" transform="translate(25.4794921875,982)"><g class="node-item graph-item-output" transform="translate(0,0)"><path d="M5,0h43.4404296875a5,5 0 0 1 5,5v13a5,5 0 0 1 -5,5h-43.4404296875a5,5 0 0 1 -5,-5v-13a5,5 0 0 1 5,-5z" style="stroke: rgb(0, 0, 0); fill: rgb(238, 238, 238); stroke-width: 0;"/><text x="6" y="16" style="font-family: -apple-system, BlinkMacSystemFont, &quot;Segoe WPC&quot;, &quot;Segoe UI&quot;, Ubuntu, &quot;Droid Sans&quot;, sans-serif, &quot;PingFang SC&quot;; font-size: 11px; text-rendering: geometricprecision; user-select: none;">dense_3</text></g><path class="node node-border" d="M5,0h43.4404296875a5,5 0 0 1 5,5v13a5,5 0 0 1 -5,5h-43.4404296875a5,5 0 0 1 -5,-5v-13a5,5 0 0 1 5,-5z" style="stroke: rgb(51, 51, 51); fill: none; stroke-width: 1px;"/></g></g></g></svg>