<svg xmlns="http://www.w3.org/2000/svg" id="export" class="canvas" preserveAspectRatio="xMidYMid meet" style="" width="135" height="547"><rect id="background" fill="#fff" pointer-events="all" width="135" height="547"/><g id="origin" transform="translate(6.0975341796875, 6.0975341796875) scale(1)"><g id="clusters" class="clusters"/><g id="edge-paths" class="edge-paths"><defs><marker id="arrowhead" viewBox="0 0 10 10" refX="9" refY="5" markerUnits="strokeWidth" markerWidth="8" markerHeight="6" orient="auto" style="fill: rgb(0, 0, 0);"><path d="M 0 0 L 10 5 L 0 10 L 4 5 z" style="stroke-width: 1;"/></marker><marker id="arrowhead-select" viewBox="0 0 10 10" refX="9" refY="5" markerUnits="strokeWidth" markerWidth="8" markerHeight="6" orient="auto" style="fill: rgba(220, 0, 0, 0.9);"><path d="M 0 0 L 10 5 L 0 10 L 4 5 z" style="stroke-width: 1;"/></marker><marker id="arrowhead-hover" viewBox="0 0 10 10" refX="9" refY="5" markerUnits="strokeWidth" markerWidth="8" markerHeight="6" orient="auto" style="fill: rgba(220, 0, 0, 0.9);"><path d="M 0 0 L 10 5 L 0 10 L 4 5 z" style="stroke-width: 1;"/></marker></defs><path id="edge-input_1[0][0]" class="edge-path" d="M60.975341796875,23L60.975341796875,24.666666666666668C60.975341796875,26.333333333333332,60.975341796875,29.666666666666668,60.975341796875,35C60.975341796875,40.333333333333336,60.975341796875,47.666666666666664,60.975341796875,55C60.975341796875,62.333333333333336,60.975341796875,69.66666666666667,60.975341796875,75C60.975341796875,80.33333333333333,60.975341796875,83.66666666666667,60.975341796875,85.33333333333333L60.975341796875,87" style="stroke: rgb(0, 0, 0); stroke-width: 1px; fill: none; marker-end: url(&quot;#arrowhead&quot;);"/><path class="edge-path-hit-test" d="M60.975341796875,23L60.975341796875,24.666666666666668C60.975341796875,26.333333333333332,60.975341796875,29.666666666666668,60.975341796875,35C60.975341796875,40.333333333333336,60.975341796875,47.666666666666664,60.975341796875,55C60.975341796875,62.333333333333336,60.975341796875,69.66666666666667,60.975341796875,75C60.975341796875,80.33333333333333,60.975341796875,83.66666666666667,60.975341796875,85.33333333333333L60.975341796875,87" style="pointer-events: stroke; stroke-width: 0.5em; fill: none; stroke: rgb(0, 0, 0); stroke-opacity: 0.001;"/><path id="edge-bidirectional[0][0]" class="edge-path" d="M60.975341796875,176L60.975341796875,177.66666666666666C60.975341796875,179.33333333333334,60.975341796875,182.66666666666666,60.975341796875,186C60.975341796875,189.33333333333334,60.975341796875,192.66666666666666,60.975341796875,194.33333333333334L60.975341796875,196" style="stroke: rgb(0, 0, 0); stroke-width: 1px; fill: none; marker-end: url(&quot;#arrowhead&quot;);"/><path class="edge-path-hit-test" d="M60.975341796875,176L60.975341796875,177.66666666666666C60.975341796875,179.33333333333334,60.975341796875,182.66666666666666,60.975341796875,186C60.975341796875,189.33333333333334,60.975341796875,192.66666666666666,60.975341796875,194.33333333333334L60.975341796875,196" style="pointer-events: stroke; stroke-width: 0.5em; fill: none; stroke: rgb(0, 0, 0); stroke-opacity: 0.001;"/><path id="edge-attention[0][0]" class="edge-path" d="M60.975341796875,219L60.975341796875,220.66666666666666C60.975341796875,222.33333333333334,60.975341796875,225.66666666666666,60.975341796875,229C60.975341796875,232.33333333333334,60.975341796875,235.66666666666666,60.975341796875,237.33333333333334L60.975341796875,239" style="stroke: rgb(0, 0, 0); stroke-width: 1px; fill: none; marker-end: url(&quot;#arrowhead&quot;);"/><path class="edge-path-hit-test" d="M60.975341796875,219L60.975341796875,220.66666666666666C60.975341796875,222.33333333333334,60.975341796875,225.66666666666666,60.975341796875,229C60.975341796875,232.33333333333334,60.975341796875,235.66666666666666,60.975341796875,237.33333333333334L60.975341796875,239" style="pointer-events: stroke; stroke-width: 0.5em; fill: none; stroke: rgb(0, 0, 0); stroke-opacity: 0.001;"/><path id="edge-global_average_pooling1d[0][0]" class="edge-path" d="M60.975341796875,262L60.975341796875,263.6666666666667C60.975341796875,265.3333333333333,60.975341796875,268.6666666666667,60.975341796875,272C60.975341796875,275.3333333333333,60.975341796875,278.6666666666667,60.975341796875,280.3333333333333L60.975341796875,282" style="stroke: rgb(0, 0, 0); stroke-width: 1px; fill: none; marker-end: url(&quot;#arrowhead&quot;);"/><path class="edge-path-hit-test" d="M60.975341796875,262L60.975341796875,263.6666666666667C60.975341796875,265.3333333333333,60.975341796875,268.6666666666667,60.975341796875,272C60.975341796875,275.3333333333333,60.975341796875,278.6666666666667,60.975341796875,280.3333333333333L60.975341796875,282" style="pointer-events: stroke; stroke-width: 0.5em; fill: none; stroke: rgb(0, 0, 0); stroke-opacity: 0.001;"/><path id="edge-tf.expand_dims[0][0]" class="edge-path" d="M60.975341796875,305L60.975341796875,306.6666666666667C60.975341796875,308.3333333333333,60.975341796875,311.6666666666667,60.975341796875,315C60.975341796875,318.3333333333333,60.975341796875,321.6666666666667,60.975341796875,323.3333333333333L60.975341796875,325" style="stroke: rgb(0, 0, 0); stroke-width: 1px; fill: none; marker-end: url(&quot;#arrowhead&quot;);"/><path class="edge-path-hit-test" d="M60.975341796875,305L60.975341796875,306.6666666666667C60.975341796875,308.3333333333333,60.975341796875,311.6666666666667,60.975341796875,315C60.975341796875,318.3333333333333,60.975341796875,321.6666666666667,60.975341796875,323.3333333333333L60.975341796875,325" style="pointer-events: stroke; stroke-width: 0.5em; fill: none; stroke: rgb(0, 0, 0); stroke-opacity: 0.001;"/><path id="edge-average_pooling1d[0][0]" class="edge-path" d="M60.975341796875,348L60.975341796875,349.6666666666667C60.975341796875,351.3333333333333,60.975341796875,354.6666666666667,60.975341796875,358C60.975341796875,361.3333333333333,60.975341796875,364.6666666666667,60.975341796875,366.3333333333333L60.975341796875,368" style="stroke: rgb(0, 0, 0); stroke-width: 1px; fill: none; marker-end: url(&quot;#arrowhead&quot;);"/><path class="edge-path-hit-test" d="M60.975341796875,348L60.975341796875,349.6666666666667C60.975341796875,351.3333333333333,60.975341796875,354.6666666666667,60.975341796875,358C60.975341796875,361.3333333333333,60.975341796875,364.6666666666667,60.975341796875,366.3333333333333L60.975341796875,368" style="pointer-events: stroke; stroke-width: 0.5em; fill: none; stroke: rgb(0, 0, 0); stroke-opacity: 0.001;"/><path id="edge-tf.compat.v1.squeeze[0][0]" class="edge-path" d="M60.975341796875,391L60.975341796875,392.6666666666667C60.975341796875,394.3333333333333,60.975341796875,397.6666666666667,60.975341796875,401C60.975341796875,404.3333333333333,60.975341796875,407.6666666666667,60.975341796875,409.3333333333333L60.975341796875,411" style="stroke: rgb(0, 0, 0); stroke-width: 1px; fill: none; marker-end: url(&quot;#arrowhead&quot;);"/><path class="edge-path-hit-test" d="M60.975341796875,391L60.975341796875,392.6666666666667C60.975341796875,394.3333333333333,60.975341796875,397.6666666666667,60.975341796875,401C60.975341796875,404.3333333333333,60.975341796875,407.6666666666667,60.975341796875,409.3333333333333L60.975341796875,411" style="pointer-events: stroke; stroke-width: 0.5em; fill: none; stroke: rgb(0, 0, 0); stroke-opacity: 0.001;"/><path id="edge-dense[0][0]" class="edge-path" d="M60.975341796875,491L60.975341796875,492.6666666666667C60.975341796875,494.3333333333333,60.975341796875,497.6666666666667,60.975341796875,501C60.975341796875,504.3333333333333,60.975341796875,507.6666666666667,60.975341796875,509.3333333333333L60.975341796875,511" style="stroke: rgb(0, 0, 0); stroke-width: 1px; fill: none; marker-end: url(&quot;#arrowhead&quot;);"/><path class="edge-path-hit-test" d="M60.975341796875,491L60.975341796875,492.6666666666667C60.975341796875,494.3333333333333,60.975341796875,497.6666666666667,60.975341796875,501C60.975341796875,504.3333333333333,60.975341796875,507.6666666666667,60.975341796875,509.3333333333333L60.975341796875,511" style="pointer-events: stroke; stroke-width: 0.5em; fill: none; stroke: rgb(0, 0, 0); stroke-opacity: 0.001;"/></g><g id="edge-labels" class="edge-labels"><text class="edge-label" id="edge-label-edge-input_1[0][0]" style="opacity: 1; font-family: -apple-system, BlinkMacSystemFont, &quot;Segoe WPC&quot;, &quot;Segoe UI&quot;, Ubuntu, &quot;Droid Sans&quot;, sans-serif, &quot;PingFang SC&quot;; font-size: 10px;" transform="translate(65.975341796875,48)"><tspan xml:space="preserve" dy="1em" x="1">?×100×100</tspan></text></g><g id="nodes" class="nodes"><g id="input-name-input_1" class="node graph-input" style="" transform="translate(36.069091796875,0)"><g class="node-item graph-item-input" transform="translate(0,0)"><path d="M5,0h39.8125a5,5 0 0 1 5,5v13a5,5 0 0 1 -5,5h-39.8125a5,5 0 0 1 -5,-5v-13a5,5 0 0 1 5,-5z" style="stroke: rgb(0, 0, 0); fill: rgb(238, 238, 238); stroke-width: 0;"/><text x="6" y="16" style="font-family: -apple-system, BlinkMacSystemFont, &quot;Segoe WPC&quot;, &quot;Segoe UI&quot;, Ubuntu, &quot;Droid Sans&quot;, sans-serif, &quot;PingFang SC&quot;; font-size: 11px; text-rendering: geometricprecision; user-select: none;">input_1</text><title>float32[?,100,100]</title></g><path class="node node-border" d="M5,0h39.8125a5,5 0 0 1 5,5v13a5,5 0 0 1 -5,5h-39.8125a5,5 0 0 1 -5,-5v-13a5,5 0 0 1 5,-5z" style="stroke: rgb(51, 51, 51); fill: none; stroke-width: 1px;"/></g><g id="node-name-bidirectional" class="node graph-node" style="" transform="translate(23.475341796875,87)"><g class="node-item node-item-type node-item-type-wrapper" transform="translate(0,0)"><path d="M5,0h65a5,5 0 0 1 5,5v18a0,0 0 0 1 0,0h-75a0,0 0 0 1 0,0v-18a5,5 0 0 1 5,-5z" style="stroke: rgb(0, 0, 0); fill: rgb(238, 238, 238); stroke-width: 0;"/><text x="6" y="16" style="font-family: -apple-system, BlinkMacSystemFont, &quot;Segoe WPC&quot;, &quot;Segoe UI&quot;, Ubuntu, &quot;Droid Sans&quot;, sans-serif, &quot;PingFang SC&quot;; font-size: 11px; text-rendering: geometricprecision; user-select: none; fill: rgb(0, 0, 0);">Bidirectional</text><title>bidirectional</title></g><g class="node-argument-list" transform="translate(0,23)"><path d="M0,0h75a0,0 0 0 1 0,0v20a0,0 0 0 1 0,0h-75a0,0 0 0 1 0,0v-20a0,0 0 0 1 0,0z" style="stroke: rgb(0, 0, 0); fill: rgb(255, 255, 255); stroke-width: 0;"/><g class="node-argument"><rect rx="3" ry="3" x="3" y="3" width="69" height="14" style="fill: transparent;"/><text xml:space="preserve" x="6" y="14" style="font-family: -apple-system, BlinkMacSystemFont, &quot;Segoe WPC&quot;, &quot;Segoe UI&quot;, Ubuntu, &quot;Droid Sans&quot;, sans-serif, &quot;PingFang SC&quot;; font-size: 9px; font-weight: normal; text-rendering: geometricprecision; user-select: none;"><tspan style="font-weight: bold;">〈…〉</tspan><tspan/></text></g><line class="node" x1="0" x2="75" y1="0" y2="0" style="stroke: rgb(51, 51, 51); fill: none; stroke-width: 1px;"/></g><g class="node-item node-item-type node-item-type-layer" transform="translate(0,43)"><path d="M0,0h75a0,0 0 0 1 0,0v23a0,0 0 0 1 0,0h-75a0,0 0 0 1 0,0v-23a0,0 0 0 1 0,0z" style="stroke: rgb(0, 0, 0); fill: rgb(51, 85, 136); stroke-width: 0;"/><text x="6" y="16" style="font-family: -apple-system, BlinkMacSystemFont, &quot;Segoe WPC&quot;, &quot;Segoe UI&quot;, Ubuntu, &quot;Droid Sans&quot;, sans-serif, &quot;PingFang SC&quot;; font-size: 11px; text-rendering: geometricprecision; user-select: none; fill: rgb(255, 255, 255);">LSTM</text><title>lstm</title></g><line class="node" x1="0" x2="75" y1="43" y2="43" style="stroke: rgb(51, 51, 51); fill: none; stroke-width: 1px;"/><g class="node-item node-item-type node-item-type-activation" transform="translate(0,66)"><path d="M0,0h75a0,0 0 0 1 0,0v18a5,5 0 0 1 -5,5h-65a5,5 0 0 1 -5,-5v-18a0,0 0 0 1 0,0z" style="stroke: rgb(0, 0, 0); fill: rgb(112, 41, 33); stroke-width: 0;"/><text x="6" y="16" style="font-family: -apple-system, BlinkMacSystemFont, &quot;Segoe WPC&quot;, &quot;Segoe UI&quot;, Ubuntu, &quot;Droid Sans&quot;, sans-serif, &quot;PingFang SC&quot;; font-size: 11px; text-rendering: geometricprecision; user-select: none; fill: rgb(255, 255, 255);">Activation</text></g><line class="node" x1="0" x2="75" y1="66" y2="66" style="stroke: rgb(51, 51, 51); fill: none; stroke-width: 1px;"/><path class="node node-border" d="M5,0h65a5,5 0 0 1 5,5v79a5,5 0 0 1 -5,5h-65a5,5 0 0 1 -5,-5v-79a5,5 0 0 1 5,-5z" style="stroke: rgb(51, 51, 51); fill: none; stroke-width: 1px;"/></g><g id="node-name-attention" class="node graph-node" style="" transform="translate(30.678466796875,196)"><g class="node-item node-item-type node-item-type-attention" transform="translate(0,0)"><path d="M5,0h50.59375a5,5 0 0 1 5,5v13a5,5 0 0 1 -5,5h-50.59375a5,5 0 0 1 -5,-5v-13a5,5 0 0 1 5,-5z" style="stroke: rgb(0, 0, 0); fill: rgb(120, 60, 0); stroke-width: 0;"/><text x="6" y="16" style="font-family: -apple-system, BlinkMacSystemFont, &quot;Segoe WPC&quot;, &quot;Segoe UI&quot;, Ubuntu, &quot;Droid Sans&quot;, sans-serif, &quot;PingFang SC&quot;; font-size: 11px; text-rendering: geometricprecision; user-select: none; fill: rgb(255, 255, 255);">Attention</text><title>attention</title></g><path class="node node-border" d="M5,0h50.59375a5,5 0 0 1 5,5v13a5,5 0 0 1 -5,5h-50.59375a5,5 0 0 1 -5,-5v-13a5,5 0 0 1 5,-5z" style="stroke: rgb(51, 51, 51); fill: none; stroke-width: 1px;"/></g><g id="node-name-global_average_pooling1d" class="node graph-node" style="" transform="translate(0,239)"><g class="node-item node-item-type node-item-type-pool" transform="translate(0,0)"><path d="M5,0h111.95068359375a5,5 0 0 1 5,5v13a5,5 0 0 1 -5,5h-111.95068359375a5,5 0 0 1 -5,-5v-13a5,5 0 0 1 5,-5z" style="stroke: rgb(0, 0, 0); fill: rgb(51, 85, 51); stroke-width: 0;"/><text x="6" y="16" style="font-family: -apple-system, BlinkMacSystemFont, &quot;Segoe WPC&quot;, &quot;Segoe UI&quot;, Ubuntu, &quot;Droid Sans&quot;, sans-serif, &quot;PingFang SC&quot;; font-size: 11px; text-rendering: geometricprecision; user-select: none; fill: rgb(255, 255, 255);">GlobalAve…Pooling1D</text><title>global_average_pooling1d</title></g><path class="node node-border" d="M5,0h111.95068359375a5,5 0 0 1 5,5v13a5,5 0 0 1 -5,5h-111.95068359375a5,5 0 0 1 -5,-5v-13a5,5 0 0 1 5,-5z" style="stroke: rgb(51, 51, 51); fill: none; stroke-width: 1px;"/></g><g id="node-name-tf.expand_dims" class="node graph-node" style="" transform="translate(22.100830078125,282)"><g class="node-item node-item-type" transform="translate(0,0)"><path d="M5,0h67.7490234375a5,5 0 0 1 5,5v13a5,5 0 0 1 -5,5h-67.7490234375a5,5 0 0 1 -5,-5v-13a5,5 0 0 1 5,-5z" style="stroke: rgb(0, 0, 0); fill: rgb(0, 0, 0); stroke-width: 0;"/><text x="6" y="16" style="font-family: -apple-system, BlinkMacSystemFont, &quot;Segoe WPC&quot;, &quot;Segoe UI&quot;, Ubuntu, &quot;Droid Sans&quot;, sans-serif, &quot;PingFang SC&quot;; font-size: 11px; text-rendering: geometricprecision; user-select: none; fill: rgb(255, 255, 255);">expand_dims</text><title>tf.expand_dims</title></g><path class="node node-border" d="M5,0h67.7490234375a5,5 0 0 1 5,5v13a5,5 0 0 1 -5,5h-67.7490234375a5,5 0 0 1 -5,-5v-13a5,5 0 0 1 5,-5z" style="stroke: rgb(51, 51, 51); fill: none; stroke-width: 1px;"/></g><g id="node-name-average_pooling1d" class="node graph-node" style="" transform="translate(8.397216796875,325)"><g class="node-item node-item-type node-item-type-pool" transform="translate(0,0)"><path d="M5,0h95.15625a5,5 0 0 1 5,5v13a5,5 0 0 1 -5,5h-95.15625a5,5 0 0 1 -5,-5v-13a5,5 0 0 1 5,-5z" style="stroke: rgb(0, 0, 0); fill: rgb(51, 85, 51); stroke-width: 0;"/><text x="6" y="16" style="font-family: -apple-system, BlinkMacSystemFont, &quot;Segoe WPC&quot;, &quot;Segoe UI&quot;, Ubuntu, &quot;Droid Sans&quot;, sans-serif, &quot;PingFang SC&quot;; font-size: 11px; text-rendering: geometricprecision; user-select: none; fill: rgb(255, 255, 255);">AveragePooling1D</text><title>average_pooling1d</title></g><path class="node node-border" d="M5,0h95.15625a5,5 0 0 1 5,5v13a5,5 0 0 1 -5,5h-95.15625a5,5 0 0 1 -5,-5v-13a5,5 0 0 1 5,-5z" style="stroke: rgb(51, 51, 51); fill: none; stroke-width: 1px;"/></g><g id="node-name-tf.compat.v1.squeeze" class="node graph-node" style="" transform="translate(34.051025390625,368)"><g class="node-item node-item-type" transform="translate(0,0)"><path d="M5,0h43.8486328125a5,5 0 0 1 5,5v13a5,5 0 0 1 -5,5h-43.8486328125a5,5 0 0 1 -5,-5v-13a5,5 0 0 1 5,-5z" style="stroke: rgb(0, 0, 0); fill: rgb(0, 0, 0); stroke-width: 0;"/><text x="6" y="16" style="font-family: -apple-system, BlinkMacSystemFont, &quot;Segoe WPC&quot;, &quot;Segoe UI&quot;, Ubuntu, &quot;Droid Sans&quot;, sans-serif, &quot;PingFang SC&quot;; font-size: 11px; text-rendering: geometricprecision; user-select: none; fill: rgb(255, 255, 255);">squeeze</text><title>tf.compat.v1.squeeze</title></g><path class="node node-border" d="M5,0h43.8486328125a5,5 0 0 1 5,5v13a5,5 0 0 1 -5,5h-43.8486328125a5,5 0 0 1 -5,-5v-13a5,5 0 0 1 5,-5z" style="stroke: rgb(51, 51, 51); fill: none; stroke-width: 1px;"/></g><g id="node-name-dense" class="node graph-node" style="" transform="translate(20.053466796875,411)"><g class="node-item node-item-type node-item-type-layer" transform="translate(0,0)"><path d="M5,0h71.84375a5,5 0 0 1 5,5v18a0,0 0 0 1 0,0h-81.84375a0,0 0 0 1 0,0v-18a5,5 0 0 1 5,-5z" style="stroke: rgb(0, 0, 0); fill: rgb(51, 85, 136); stroke-width: 0;"/><text x="6" y="16" style="font-family: -apple-system, BlinkMacSystemFont, &quot;Segoe WPC&quot;, &quot;Segoe UI&quot;, Ubuntu, &quot;Droid Sans&quot;, sans-serif, &quot;PingFang SC&quot;; font-size: 11px; text-rendering: geometricprecision; user-select: none; fill: rgb(255, 255, 255);">Dense</text><title>dense</title></g><g class="node-argument-list" transform="translate(0,23)"><path d="M0,0h81.84375a0,0 0 0 1 0,0v34a0,0 0 0 1 0,0h-81.84375a0,0 0 0 1 0,0v-34a0,0 0 0 1 0,0z" style="stroke: rgb(0, 0, 0); fill: rgb(255, 255, 255); stroke-width: 0;"/><g class="node-argument"><rect rx="3" ry="3" x="3" y="3" width="75.84375" height="14" style="fill: transparent;"/><text xml:space="preserve" x="6" y="14" style="font-family: -apple-system, BlinkMacSystemFont, &quot;Segoe WPC&quot;, &quot;Segoe UI&quot;, Ubuntu, &quot;Droid Sans&quot;, sans-serif, &quot;PingFang SC&quot;; font-size: 9px; font-weight: normal; text-rendering: geometricprecision; user-select: none;"><title>float32[128,1]</title><tspan style="font-weight: bold;">kernel</tspan><tspan>〈128×1〉</tspan></text></g><g class="node-argument"><rect rx="3" ry="3" x="3" y="17" width="75.84375" height="14" style="fill: transparent;"/><text xml:space="preserve" x="6" y="28" style="font-family: -apple-system, BlinkMacSystemFont, &quot;Segoe WPC&quot;, &quot;Segoe UI&quot;, Ubuntu, &quot;Droid Sans&quot;, sans-serif, &quot;PingFang SC&quot;; font-size: 9px; font-weight: normal; text-rendering: geometricprecision; user-select: none;"><title>float32[1]</title><tspan style="font-weight: bold;">bias</tspan><tspan>〈1〉</tspan></text></g><line class="node" x1="0" x2="81.84375" y1="0" y2="0" style="stroke: rgb(51, 51, 51); fill: none; stroke-width: 1px;"/></g><g class="node-item node-item-type node-item-type-activation" transform="translate(0,57)"><path d="M0,0h81.84375a0,0 0 0 1 0,0v18a5,5 0 0 1 -5,5h-71.84375a5,5 0 0 1 -5,-5v-18a0,0 0 0 1 0,0z" style="stroke: rgb(0, 0, 0); fill: rgb(112, 41, 33); stroke-width: 0;"/><text x="6" y="16" style="font-family: -apple-system, BlinkMacSystemFont, &quot;Segoe WPC&quot;, &quot;Segoe UI&quot;, Ubuntu, &quot;Droid Sans&quot;, sans-serif, &quot;PingFang SC&quot;; font-size: 11px; text-rendering: geometricprecision; user-select: none; fill: rgb(255, 255, 255);">Activation</text></g><line class="node" x1="0" x2="81.84375" y1="57" y2="57" style="stroke: rgb(51, 51, 51); fill: none; stroke-width: 1px;"/><path class="node node-border" d="M5,0h71.84375a5,5 0 0 1 5,5v70a5,5 0 0 1 -5,5h-71.84375a5,5 0 0 1 -5,-5v-70a5,5 0 0 1 5,-5z" style="stroke: rgb(51, 51, 51); fill: none; stroke-width: 1px;"/></g><g class="node" style="" transform="translate(39.4140625,511)"><g class="node-item graph-item-output" transform="translate(0,0)"><path d="M5,0h33.12255859375a5,5 0 0 1 5,5v13a5,5 0 0 1 -5,5h-33.12255859375a5,5 0 0 1 -5,-5v-13a5,5 0 0 1 5,-5z" style="stroke: rgb(0, 0, 0); fill: rgb(238, 238, 238); stroke-width: 0;"/><text x="6" y="16" style="font-family: -apple-system, BlinkMacSystemFont, &quot;Segoe WPC&quot;, &quot;Segoe UI&quot;, Ubuntu, &quot;Droid Sans&quot;, sans-serif, &quot;PingFang SC&quot;; font-size: 11px; text-rendering: geometricprecision; user-select: none;">dense</text></g><path class="node node-border" d="M5,0h33.12255859375a5,5 0 0 1 5,5v13a5,5 0 0 1 -5,5h-33.12255859375a5,5 0 0 1 -5,-5v-13a5,5 0 0 1 5,-5z" style="stroke: rgb(51, 51, 51); fill: none; stroke-width: 1px;"/></g></g></g></svg>