<svg xmlns="http://www.w3.org/2000/svg" id="export" class="canvas" preserveAspectRatio="xMidYMid meet" style="" width="155" height="1261"><rect id="background" fill="#fff" pointer-events="all" width="155" height="1261"/><g id="origin" transform="translate(7.032080078125, 7.032080078125) scale(1)"><g id="clusters" class="clusters"/><g id="edge-paths" class="edge-paths"><defs><marker id="arrowhead" viewBox="0 0 10 10" refX="9" refY="5" markerUnits="strokeWidth" markerWidth="8" markerHeight="6" orient="auto" style="fill: rgb(0, 0, 0);"><path d="M 0 0 L 10 5 L 0 10 L 4 5 z" style="stroke-width: 1;"/></marker><marker id="arrowhead-select" viewBox="0 0 10 10" refX="9" refY="5" markerUnits="strokeWidth" markerWidth="8" markerHeight="6" orient="auto" style="fill: rgba(220, 0, 0, 0.9);"><path d="M 0 0 L 10 5 L 0 10 L 4 5 z" style="stroke-width: 1;"/></marker><marker id="arrowhead-hover" viewBox="0 0 10 10" refX="9" refY="5" markerUnits="strokeWidth" markerWidth="8" markerHeight="6" orient="auto" style="fill: rgba(220, 0, 0, 0.9);"><path d="M 0 0 L 10 5 L 0 10 L 4 5 z" style="stroke-width: 1;"/></marker></defs><path id="edge-conv2d_input" class="edge-path" d="M56.78125,23L56.78125,24.666666666666668C56.78125,26.333333333333332,56.78125,29.666666666666668,56.78125,35C56.78125,40.333333333333336,56.78125,47.666666666666664,56.78125,55C56.78125,62.333333333333336,56.78125,69.66666666666667,56.78125,75C56.78125,80.33333333333333,56.78125,83.66666666666667,56.78125,85.33333333333333L56.78125,87" style="stroke: rgb(0, 0, 0); stroke-width: 1px; fill: none; marker-end: url(&quot;#arrowhead&quot;);"/><path class="edge-path-hit-test" d="M56.78125,23L56.78125,24.666666666666668C56.78125,26.333333333333332,56.78125,29.666666666666668,56.78125,35C56.78125,40.333333333333336,56.78125,47.666666666666664,56.78125,55C56.78125,62.333333333333336,56.78125,69.66666666666667,56.78125,75C56.78125,80.33333333333333,56.78125,83.66666666666667,56.78125,85.33333333333333L56.78125,87" style="pointer-events: stroke; stroke-width: 0.5em; fill: none; stroke: rgb(0, 0, 0); stroke-opacity: 0.001;"/><path id="edge-conv2d" class="edge-path" d="M56.78125,167L56.78125,170.66666666666666C56.78125,174.33333333333334,56.78125,181.66666666666666,56.78125,189C56.78125,196.33333333333334,56.78125,203.66666666666666,56.78125,207.33333333333334L56.78125,211" style="stroke: rgb(0, 0, 0); stroke-width: 1px; fill: none; marker-end: url(&quot;#arrowhead&quot;);"/><path class="edge-path-hit-test" d="M56.78125,167L56.78125,170.66666666666666C56.78125,174.33333333333334,56.78125,181.66666666666666,56.78125,189C56.78125,196.33333333333334,56.78125,203.66666666666666,56.78125,207.33333333333334L56.78125,211" style="pointer-events: stroke; stroke-width: 0.5em; fill: none; stroke: rgb(0, 0, 0); stroke-opacity: 0.001;"/><path id="edge-max_pooling2d" class="edge-path" d="M56.78125,234L56.78125,237.66666666666666C56.78125,241.33333333333334,56.78125,248.66666666666666,56.78125,256C56.78125,263.3333333333333,56.78125,270.6666666666667,56.78125,274.3333333333333L56.78125,278" style="stroke: rgb(0, 0, 0); stroke-width: 1px; fill: none; marker-end: url(&quot;#arrowhead&quot;);"/><path class="edge-path-hit-test" d="M56.78125,234L56.78125,237.66666666666666C56.78125,241.33333333333334,56.78125,248.66666666666666,56.78125,256C56.78125,263.3333333333333,56.78125,270.6666666666667,56.78125,274.3333333333333L56.78125,278" style="pointer-events: stroke; stroke-width: 0.5em; fill: none; stroke: rgb(0, 0, 0); stroke-opacity: 0.001;"/><path id="edge-conv2d_1" class="edge-path" d="M56.78125,358L56.78125,361.6666666666667C56.78125,365.3333333333333,56.78125,372.6666666666667,56.78125,380C56.78125,387.3333333333333,56.78125,394.6666666666667,56.78125,398.3333333333333L56.78125,402" style="stroke: rgb(0, 0, 0); stroke-width: 1px; fill: none; marker-end: url(&quot;#arrowhead&quot;);"/><path class="edge-path-hit-test" d="M56.78125,358L56.78125,361.6666666666667C56.78125,365.3333333333333,56.78125,372.6666666666667,56.78125,380C56.78125,387.3333333333333,56.78125,394.6666666666667,56.78125,398.3333333333333L56.78125,402" style="pointer-events: stroke; stroke-width: 0.5em; fill: none; stroke: rgb(0, 0, 0); stroke-opacity: 0.001;"/><path id="edge-max_pooling2d_1" class="edge-path" d="M56.78125,425L56.78125,428.6666666666667C56.78125,432.3333333333333,56.78125,439.6666666666667,56.78125,447C56.78125,454.3333333333333,56.78125,461.6666666666667,56.78125,465.3333333333333L56.78125,469" style="stroke: rgb(0, 0, 0); stroke-width: 1px; fill: none; marker-end: url(&quot;#arrowhead&quot;);"/><path class="edge-path-hit-test" d="M56.78125,425L56.78125,428.6666666666667C56.78125,432.3333333333333,56.78125,439.6666666666667,56.78125,447C56.78125,454.3333333333333,56.78125,461.6666666666667,56.78125,465.3333333333333L56.78125,469" style="pointer-events: stroke; stroke-width: 0.5em; fill: none; stroke: rgb(0, 0, 0); stroke-opacity: 0.001;"/><path id="edge-conv2d_2" class="edge-path" d="M56.78125,549L56.78125,552.6666666666666C56.78125,556.3333333333334,56.78125,563.6666666666666,56.78125,571C56.78125,578.3333333333334,56.78125,585.6666666666666,56.78125,589.3333333333334L56.78125,593" style="stroke: rgb(0, 0, 0); stroke-width: 1px; fill: none; marker-end: url(&quot;#arrowhead&quot;);"/><path class="edge-path-hit-test" d="M56.78125,549L56.78125,552.6666666666666C56.78125,556.3333333333334,56.78125,563.6666666666666,56.78125,571C56.78125,578.3333333333334,56.78125,585.6666666666666,56.78125,589.3333333333334L56.78125,593" style="pointer-events: stroke; stroke-width: 0.5em; fill: none; stroke: rgb(0, 0, 0); stroke-opacity: 0.001;"/><path id="edge-max_pooling2d_2" class="edge-path" d="M56.78125,616L56.78125,619.6666666666666C56.78125,623.3333333333334,56.78125,630.6666666666666,56.78125,638C56.78125,645.3333333333334,56.78125,652.6666666666666,56.78125,656.3333333333334L56.78125,660" style="stroke: rgb(0, 0, 0); stroke-width: 1px; fill: none; marker-end: url(&quot;#arrowhead&quot;);"/><path class="edge-path-hit-test" d="M56.78125,616L56.78125,619.6666666666666C56.78125,623.3333333333334,56.78125,630.6666666666666,56.78125,638C56.78125,645.3333333333334,56.78125,652.6666666666666,56.78125,656.3333333333334L56.78125,660" style="pointer-events: stroke; stroke-width: 0.5em; fill: none; stroke: rgb(0, 0, 0); stroke-opacity: 0.001;"/><path id="edge-flatten" class="edge-path" d="M56.78125,683L56.78125,686.6666666666666C56.78125,690.3333333333334,56.78125,697.6666666666666,56.78125,705C56.78125,712.3333333333334,56.78125,719.6666666666666,56.78125,723.3333333333334L56.78125,727" style="stroke: rgb(0, 0, 0); stroke-width: 1px; fill: none; marker-end: url(&quot;#arrowhead&quot;);"/><path class="edge-path-hit-test" d="M56.78125,683L56.78125,686.6666666666666C56.78125,690.3333333333334,56.78125,697.6666666666666,56.78125,705C56.78125,712.3333333333334,56.78125,719.6666666666666,56.78125,723.3333333333334L56.78125,727" style="pointer-events: stroke; stroke-width: 0.5em; fill: none; stroke: rgb(0, 0, 0); stroke-opacity: 0.001;"/><path id="edge-dense" class="edge-path" d="M56.78125,807L56.78125,810.6666666666666C56.78125,814.3333333333334,56.78125,821.6666666666666,56.78125,829C56.78125,836.3333333333334,56.78125,843.6666666666666,56.78125,847.3333333333334L56.78125,851" style="stroke: rgb(0, 0, 0); stroke-width: 1px; fill: none; marker-end: url(&quot;#arrowhead&quot;);"/><path class="edge-path-hit-test" d="M56.78125,807L56.78125,810.6666666666666C56.78125,814.3333333333334,56.78125,821.6666666666666,56.78125,829C56.78125,836.3333333333334,56.78125,843.6666666666666,56.78125,847.3333333333334L56.78125,851" style="pointer-events: stroke; stroke-width: 0.5em; fill: none; stroke: rgb(0, 0, 0); stroke-opacity: 0.001;"/><path id="edge-dense_1" class="edge-path" d="M56.78125,931L56.78125,934.6666666666666C56.78125,938.3333333333334,56.78125,945.6666666666666,56.78125,953C56.78125,960.3333333333334,56.78125,967.6666666666666,56.78125,971.3333333333334L56.78125,975" style="stroke: rgb(0, 0, 0); stroke-width: 1px; fill: none; marker-end: url(&quot;#arrowhead&quot;);"/><path class="edge-path-hit-test" d="M56.78125,931L56.78125,934.6666666666666C56.78125,938.3333333333334,56.78125,945.6666666666666,56.78125,953C56.78125,960.3333333333334,56.78125,967.6666666666666,56.78125,971.3333333333334L56.78125,975" style="pointer-events: stroke; stroke-width: 0.5em; fill: none; stroke: rgb(0, 0, 0); stroke-opacity: 0.001;"/><path id="edge-dense_2" class="edge-path" d="M56.78125,1055L56.78125,1058.6666666666667C56.78125,1062.3333333333333,56.78125,1069.6666666666667,56.78125,1077C56.78125,1084.3333333333333,56.78125,1091.6666666666667,56.78125,1095.3333333333333L56.78125,1099" style="stroke: rgb(0, 0, 0); stroke-width: 1px; fill: none; marker-end: url(&quot;#arrowhead&quot;);"/><path class="edge-path-hit-test" d="M56.78125,1055L56.78125,1058.6666666666667C56.78125,1062.3333333333333,56.78125,1069.6666666666667,56.78125,1077C56.78125,1084.3333333333333,56.78125,1091.6666666666667,56.78125,1095.3333333333333L56.78125,1099" style="pointer-events: stroke; stroke-width: 0.5em; fill: none; stroke: rgb(0, 0, 0); stroke-opacity: 0.001;"/><path id="edge-dense_3" class="edge-path" d="M56.78125,1179L56.78125,1182.6666666666667C56.78125,1186.3333333333333,56.78125,1193.6666666666667,56.78125,1201C56.78125,1208.3333333333333,56.78125,1215.6666666666667,56.78125,1219.3333333333333L56.78125,1223" style="stroke: rgb(0, 0, 0); stroke-width: 1px; fill: none; marker-end: url(&quot;#arrowhead&quot;);"/><path class="edge-path-hit-test" d="M56.78125,1179L56.78125,1182.6666666666667C56.78125,1186.3333333333333,56.78125,1193.6666666666667,56.78125,1201C56.78125,1208.3333333333333,56.78125,1215.6666666666667,56.78125,1219.3333333333333L56.78125,1223" style="pointer-events: stroke; stroke-width: 0.5em; fill: none; stroke: rgb(0, 0, 0); stroke-opacity: 0.001;"/></g><g id="edge-labels" class="edge-labels"><text class="edge-label" id="edge-label-edge-conv2d_input" style="opacity: 1; font-family: -apple-system, BlinkMacSystemFont, &quot;Segoe WPC&quot;, &quot;Segoe UI&quot;, Ubuntu, &quot;Droid Sans&quot;, sans-serif, &quot;PingFang SC&quot;; font-size: 10px;" transform="translate(61.78125,48)"><tspan xml:space="preserve" dy="1em" x="1">conv2d_input</tspan></text><text class="edge-label" id="edge-label-edge-conv2d" style="opacity: 1; font-family: -apple-system, BlinkMacSystemFont, &quot;Segoe WPC&quot;, &quot;Segoe UI&quot;, Ubuntu, &quot;Droid Sans&quot;, sans-serif, &quot;PingFang SC&quot;; font-size: 10px;" transform="translate(61.78125,182)"><tspan xml:space="preserve" dy="1em" x="1">conv2d</tspan></text><text class="edge-label" id="edge-label-edge-max_pooling2d" style="opacity: 1; font-family: -apple-system, BlinkMacSystemFont, &quot;Segoe WPC&quot;, &quot;Segoe UI&quot;, Ubuntu, &quot;Droid Sans&quot;, sans-serif, &quot;PingFang SC&quot;; font-size: 10px;" transform="translate(61.78125,249)"><tspan xml:space="preserve" dy="1em" x="1">max_pooling2d</tspan></text><text class="edge-label" id="edge-label-edge-conv2d_1" style="opacity: 1; font-family: -apple-system, BlinkMacSystemFont, &quot;Segoe WPC&quot;, &quot;Segoe UI&quot;, Ubuntu, &quot;Droid Sans&quot;, sans-serif, &quot;PingFang SC&quot;; font-size: 10px;" transform="translate(61.78125,373)"><tspan xml:space="preserve" dy="1em" x="1">conv2d_1</tspan></text><text class="edge-label" id="edge-label-edge-max_pooling2d_1" style="opacity: 1; font-family: -apple-system, BlinkMacSystemFont, &quot;Segoe WPC&quot;, &quot;Segoe UI&quot;, Ubuntu, &quot;Droid Sans&quot;, sans-serif, &quot;PingFang SC&quot;; font-size: 10px;" transform="translate(61.78125,440)"><tspan xml:space="preserve" dy="1em" x="1">max_pooling2d_1</tspan></text><text class="edge-label" id="edge-label-edge-conv2d_2" style="opacity: 1; font-family: -apple-system, BlinkMacSystemFont, &quot;Segoe WPC&quot;, &quot;Segoe UI&quot;, Ubuntu, &quot;Droid Sans&quot;, sans-serif, &quot;PingFang SC&quot;; font-size: 10px;" transform="translate(61.78125,564)"><tspan xml:space="preserve" dy="1em" x="1">conv2d_2</tspan></text><text class="edge-label" id="edge-label-edge-max_pooling2d_2" style="opacity: 1; font-family: -apple-system, BlinkMacSystemFont, &quot;Segoe WPC&quot;, &quot;Segoe UI&quot;, Ubuntu, &quot;Droid Sans&quot;, sans-serif, &quot;PingFang SC&quot;; font-size: 10px;" transform="translate(61.78125,631)"><tspan xml:space="preserve" dy="1em" x="1">max_pooling2d_2</tspan></text><text class="edge-label" id="edge-label-edge-flatten" style="opacity: 1; font-family: -apple-system, BlinkMacSystemFont, &quot;Segoe WPC&quot;, &quot;Segoe UI&quot;, Ubuntu, &quot;Droid Sans&quot;, sans-serif, &quot;PingFang SC&quot;; font-size: 10px;" transform="translate(61.78125,698)"><tspan xml:space="preserve" dy="1em" x="1">flatten</tspan></text><text class="edge-label" id="edge-label-edge-dense" style="opacity: 1; font-family: -apple-system, BlinkMacSystemFont, &quot;Segoe WPC&quot;, &quot;Segoe UI&quot;, Ubuntu, &quot;Droid Sans&quot;, sans-serif, &quot;PingFang SC&quot;; font-size: 10px;" transform="translate(61.78125,822)"><tspan xml:space="preserve" dy="1em" x="1">dense</tspan></text><text class="edge-label" id="edge-label-edge-dense_1" style="opacity: 1; font-family: -apple-system, BlinkMacSystemFont, &quot;Segoe WPC&quot;, &quot;Segoe UI&quot;, Ubuntu, &quot;Droid Sans&quot;, sans-serif, &quot;PingFang SC&quot;; font-size: 10px;" transform="translate(61.78125,946)"><tspan xml:space="preserve" dy="1em" x="1">dense_1</tspan></text><text class="edge-label" id="edge-label-edge-dense_2" style="opacity: 1; font-family: -apple-system, BlinkMacSystemFont, &quot;Segoe WPC&quot;, &quot;Segoe UI&quot;, Ubuntu, &quot;Droid Sans&quot;, sans-serif, &quot;PingFang SC&quot;; font-size: 10px;" transform="translate(61.78125,1070)"><tspan xml:space="preserve" dy="1em" x="1">dense_2</tspan></text><text class="edge-label" id="edge-label-edge-dense_3" style="opacity: 1; font-family: -apple-system, BlinkMacSystemFont, &quot;Segoe WPC&quot;, &quot;Segoe UI&quot;, Ubuntu, &quot;Droid Sans&quot;, sans-serif, &quot;PingFang SC&quot;; font-size: 10px;" transform="translate(61.78125,1194)"><tspan xml:space="preserve" dy="1em" x="1">dense_3</tspan></text></g><g id="nodes" class="nodes"><g id="input-name-conv2d_input" class="node graph-input" style="" transform="translate(16.994140625,0)"><g class="node-item graph-item-input" transform="translate(0,0)"><path d="M5,0h69.57421875a5,5 0 0 1 5,5v13a5,5 0 0 1 -5,5h-69.57421875a5,5 0 0 1 -5,-5v-13a5,5 0 0 1 5,-5z" style="stroke: rgb(0, 0, 0); fill: rgb(238, 238, 238); stroke-width: 0;"/><text x="6" y="16" style="font-family: -apple-system, BlinkMacSystemFont, &quot;Segoe WPC&quot;, &quot;Segoe UI&quot;, Ubuntu, &quot;Droid Sans&quot;, sans-serif, &quot;PingFang SC&quot;; font-size: 11px; text-rendering: geometricprecision; user-select: none;">conv2d_input</text><title>float32[?,100,100,1]</title></g><path class="node node-border" d="M5,0h69.57421875a5,5 0 0 1 5,5v13a5,5 0 0 1 -5,5h-69.57421875a5,5 0 0 1 -5,-5v-13a5,5 0 0 1 5,-5z" style="stroke: rgb(51, 51, 51); fill: none; stroke-width: 1px;"/></g><g id="node-name-conv2d" class="node graph-node" style="" transform="translate(7.28125,87)"><g class="node-item node-item-type node-item-type-layer" transform="translate(0,0)"><path d="M5,0h89a5,5 0 0 1 5,5v18a0,0 0 0 1 0,0h-99a0,0 0 0 1 0,0v-18a5,5 0 0 1 5,-5z" style="stroke: rgb(0, 0, 0); fill: rgb(51, 85, 136); stroke-width: 0;"/><text x="6" y="16" style="font-family: -apple-system, BlinkMacSystemFont, &quot;Segoe WPC&quot;, &quot;Segoe UI&quot;, Ubuntu, &quot;Droid Sans&quot;, sans-serif, &quot;PingFang SC&quot;; font-size: 11px; text-rendering: geometricprecision; user-select: none; fill: rgb(255, 255, 255);">conv2d</text><title>Conv2D</title></g><g class="node-argument-list" transform="translate(0,23)"><path d="M0,0h99a0,0 0 0 1 0,0v34a0,0 0 0 1 0,0h-99a0,0 0 0 1 0,0v-34a0,0 0 0 1 0,0z" style="stroke: rgb(0, 0, 0); fill: rgb(255, 255, 255); stroke-width: 0;"/><g class="node-argument"><rect rx="3" ry="3" x="3" y="3" width="93" height="14" style="fill: transparent;"/><text xml:space="preserve" x="6" y="14" style="font-family: -apple-system, BlinkMacSystemFont, &quot;Segoe WPC&quot;, &quot;Segoe UI&quot;, Ubuntu, &quot;Droid Sans&quot;, sans-serif, &quot;PingFang SC&quot;; font-size: 9px; font-weight: normal; text-rendering: geometricprecision; user-select: none;"><title>float32[3,3,1,64]</title><tspan style="font-weight: bold;">kernel</tspan><tspan>〈3×3×1×64〉</tspan></text></g><g class="node-argument"><rect rx="3" ry="3" x="3" y="17" width="93" height="14" style="fill: transparent;"/><text xml:space="preserve" x="6" y="28" style="font-family: -apple-system, BlinkMacSystemFont, &quot;Segoe WPC&quot;, &quot;Segoe UI&quot;, Ubuntu, &quot;Droid Sans&quot;, sans-serif, &quot;PingFang SC&quot;; font-size: 9px; font-weight: normal; text-rendering: geometricprecision; user-select: none;"><title>float32[64]</title><tspan style="font-weight: bold;">bias</tspan><tspan>〈64〉</tspan></text></g><line class="node" x1="0" x2="99" y1="0" y2="0" style="stroke: rgb(51, 51, 51); fill: none; stroke-width: 1px;"/></g><g class="node-item node-item-type node-item-type-activation" transform="translate(0,57)"><path d="M0,0h99a0,0 0 0 1 0,0v18a5,5 0 0 1 -5,5h-89a5,5 0 0 1 -5,-5v-18a0,0 0 0 1 0,0z" style="stroke: rgb(0, 0, 0); fill: rgb(112, 41, 33); stroke-width: 0;"/><text x="6" y="16" style="font-family: -apple-system, BlinkMacSystemFont, &quot;Segoe WPC&quot;, &quot;Segoe UI&quot;, Ubuntu, &quot;Droid Sans&quot;, sans-serif, &quot;PingFang SC&quot;; font-size: 11px; text-rendering: geometricprecision; user-select: none; fill: rgb(255, 255, 255);">Activation</text></g><line class="node" x1="0" x2="99" y1="57" y2="57" style="stroke: rgb(51, 51, 51); fill: none; stroke-width: 1px;"/><path class="node node-border" d="M5,0h89a5,5 0 0 1 5,5v70a5,5 0 0 1 -5,5h-89a5,5 0 0 1 -5,-5v-70a5,5 0 0 1 5,-5z" style="stroke: rgb(51, 51, 51); fill: none; stroke-width: 1px;"/></g><g id="node-name-max_pooling2d" class="node graph-node" style="" transform="translate(12.5390625,211)"><g class="node-item node-item-type node-item-type-pool" transform="translate(0,0)"><path d="M5,0h78.484375a5,5 0 0 1 5,5v13a5,5 0 0 1 -5,5h-78.484375a5,5 0 0 1 -5,-5v-13a5,5 0 0 1 5,-5z" style="stroke: rgb(0, 0, 0); fill: rgb(51, 85, 51); stroke-width: 0;"/><text x="6" y="16" style="font-family: -apple-system, BlinkMacSystemFont, &quot;Segoe WPC&quot;, &quot;Segoe UI&quot;, Ubuntu, &quot;Droid Sans&quot;, sans-serif, &quot;PingFang SC&quot;; font-size: 11px; text-rendering: geometricprecision; user-select: none; fill: rgb(255, 255, 255);">max_pooling2d</text><title>MaxPooling2D</title></g><path class="node node-border" d="M5,0h78.484375a5,5 0 0 1 5,5v13a5,5 0 0 1 -5,5h-78.484375a5,5 0 0 1 -5,-5v-13a5,5 0 0 1 5,-5z" style="stroke: rgb(51, 51, 51); fill: none; stroke-width: 1px;"/></g><g id="node-name-conv2d_1" class="node graph-node" style="" transform="translate(2.4296875,278)"><g class="node-item node-item-type node-item-type-layer" transform="translate(0,0)"><path d="M5,0h98.703125a5,5 0 0 1 5,5v18a0,0 0 0 1 0,0h-108.703125a0,0 0 0 1 0,0v-18a5,5 0 0 1 5,-5z" style="stroke: rgb(0, 0, 0); fill: rgb(51, 85, 136); stroke-width: 0;"/><text x="6" y="16" style="font-family: -apple-system, BlinkMacSystemFont, &quot;Segoe WPC&quot;, &quot;Segoe UI&quot;, Ubuntu, &quot;Droid Sans&quot;, sans-serif, &quot;PingFang SC&quot;; font-size: 11px; text-rendering: geometricprecision; user-select: none; fill: rgb(255, 255, 255);">conv2d_1</text><title>Conv2D</title></g><g class="node-argument-list" transform="translate(0,23)"><path d="M0,0h108.703125a0,0 0 0 1 0,0v34a0,0 0 0 1 0,0h-108.703125a0,0 0 0 1 0,0v-34a0,0 0 0 1 0,0z" style="stroke: rgb(0, 0, 0); fill: rgb(255, 255, 255); stroke-width: 0;"/><g class="node-argument"><rect rx="3" ry="3" x="3" y="3" width="102.703125" height="14" style="fill: transparent;"/><text xml:space="preserve" x="6" y="14" style="font-family: -apple-system, BlinkMacSystemFont, &quot;Segoe WPC&quot;, &quot;Segoe UI&quot;, Ubuntu, &quot;Droid Sans&quot;, sans-serif, &quot;PingFang SC&quot;; font-size: 9px; font-weight: normal; text-rendering: geometricprecision; user-select: none;"><title>float32[3,3,64,128]</title><tspan style="font-weight: bold;">kernel</tspan><tspan>〈3×3×64×128〉</tspan></text></g><g class="node-argument"><rect rx="3" ry="3" x="3" y="17" width="102.703125" height="14" style="fill: transparent;"/><text xml:space="preserve" x="6" y="28" style="font-family: -apple-system, BlinkMacSystemFont, &quot;Segoe WPC&quot;, &quot;Segoe UI&quot;, Ubuntu, &quot;Droid Sans&quot;, sans-serif, &quot;PingFang SC&quot;; font-size: 9px; font-weight: normal; text-rendering: geometricprecision; user-select: none;"><title>float32[128]</title><tspan style="font-weight: bold;">bias</tspan><tspan>〈128〉</tspan></text></g><line class="node" x1="0" x2="108.703125" y1="0" y2="0" style="stroke: rgb(51, 51, 51); fill: none; stroke-width: 1px;"/></g><g class="node-item node-item-type node-item-type-activation" transform="translate(0,57)"><path d="M0,0h108.703125a0,0 0 0 1 0,0v18a5,5 0 0 1 -5,5h-98.703125a5,5 0 0 1 -5,-5v-18a0,0 0 0 1 0,0z" style="stroke: rgb(0, 0, 0); fill: rgb(112, 41, 33); stroke-width: 0;"/><text x="6" y="16" style="font-family: -apple-system, BlinkMacSystemFont, &quot;Segoe WPC&quot;, &quot;Segoe UI&quot;, Ubuntu, &quot;Droid Sans&quot;, sans-serif, &quot;PingFang SC&quot;; font-size: 11px; text-rendering: geometricprecision; user-select: none; fill: rgb(255, 255, 255);">Activation</text></g><line class="node" x1="0" x2="108.703125" y1="57" y2="57" style="stroke: rgb(51, 51, 51); fill: none; stroke-width: 1px;"/><path class="node node-border" d="M5,0h98.703125a5,5 0 0 1 5,5v70a5,5 0 0 1 -5,5h-98.703125a5,5 0 0 1 -5,-5v-70a5,5 0 0 1 5,-5z" style="stroke: rgb(51, 51, 51); fill: none; stroke-width: 1px;"/></g><g id="node-name-max_pooling2d_1" class="node graph-node" style="" transform="translate(7.2890625,402)"><g class="node-item node-item-type node-item-type-pool" transform="translate(0,0)"><path d="M5,0h88.984375a5,5 0 0 1 5,5v13a5,5 0 0 1 -5,5h-88.984375a5,5 0 0 1 -5,-5v-13a5,5 0 0 1 5,-5z" style="stroke: rgb(0, 0, 0); fill: rgb(51, 85, 51); stroke-width: 0;"/><text x="6" y="16" style="font-family: -apple-system, BlinkMacSystemFont, &quot;Segoe WPC&quot;, &quot;Segoe UI&quot;, Ubuntu, &quot;Droid Sans&quot;, sans-serif, &quot;PingFang SC&quot;; font-size: 11px; text-rendering: geometricprecision; user-select: none; fill: rgb(255, 255, 255);">max_pooling2d_1</text><title>MaxPooling2D</title></g><path class="node node-border" d="M5,0h88.984375a5,5 0 0 1 5,5v13a5,5 0 0 1 -5,5h-88.984375a5,5 0 0 1 -5,-5v-13a5,5 0 0 1 5,-5z" style="stroke: rgb(51, 51, 51); fill: none; stroke-width: 1px;"/></g><g id="node-name-conv2d_2" class="node graph-node" style="" transform="translate(0,469)"><g class="node-item node-item-type node-item-type-layer" transform="translate(0,0)"><path d="M5,0h103.5625a5,5 0 0 1 5,5v18a0,0 0 0 1 0,0h-113.5625a0,0 0 0 1 0,0v-18a5,5 0 0 1 5,-5z" style="stroke: rgb(0, 0, 0); fill: rgb(51, 85, 136); stroke-width: 0;"/><text x="6" y="16" style="font-family: -apple-system, BlinkMacSystemFont, &quot;Segoe WPC&quot;, &quot;Segoe UI&quot;, Ubuntu, &quot;Droid Sans&quot;, sans-serif, &quot;PingFang SC&quot;; font-size: 11px; text-rendering: geometricprecision; user-select: none; fill: rgb(255, 255, 255);">conv2d_2</text><title>Conv2D</title></g><g class="node-argument-list" transform="translate(0,23)"><path d="M0,0h113.5625a0,0 0 0 1 0,0v34a0,0 0 0 1 0,0h-113.5625a0,0 0 0 1 0,0v-34a0,0 0 0 1 0,0z" style="stroke: rgb(0, 0, 0); fill: rgb(255, 255, 255); stroke-width: 0;"/><g class="node-argument"><rect rx="3" ry="3" x="3" y="3" width="107.5625" height="14" style="fill: transparent;"/><text xml:space="preserve" x="6" y="14" style="font-family: -apple-system, BlinkMacSystemFont, &quot;Segoe WPC&quot;, &quot;Segoe UI&quot;, Ubuntu, &quot;Droid Sans&quot;, sans-serif, &quot;PingFang SC&quot;; font-size: 9px; font-weight: normal; text-rendering: geometricprecision; user-select: none;"><title>float32[3,3,128,256]</title><tspan style="font-weight: bold;">kernel</tspan><tspan>〈3×3×128×256〉</tspan></text></g><g class="node-argument"><rect rx="3" ry="3" x="3" y="17" width="107.5625" height="14" style="fill: transparent;"/><text xml:space="preserve" x="6" y="28" style="font-family: -apple-system, BlinkMacSystemFont, &quot;Segoe WPC&quot;, &quot;Segoe UI&quot;, Ubuntu, &quot;Droid Sans&quot;, sans-serif, &quot;PingFang SC&quot;; font-size: 9px; font-weight: normal; text-rendering: geometricprecision; user-select: none;"><title>float32[256]</title><tspan style="font-weight: bold;">bias</tspan><tspan>〈256〉</tspan></text></g><line class="node" x1="0" x2="113.5625" y1="0" y2="0" style="stroke: rgb(51, 51, 51); fill: none; stroke-width: 1px;"/></g><g class="node-item node-item-type node-item-type-activation" transform="translate(0,57)"><path d="M0,0h113.5625a0,0 0 0 1 0,0v18a5,5 0 0 1 -5,5h-103.5625a5,5 0 0 1 -5,-5v-18a0,0 0 0 1 0,0z" style="stroke: rgb(0, 0, 0); fill: rgb(112, 41, 33); stroke-width: 0;"/><text x="6" y="16" style="font-family: -apple-system, BlinkMacSystemFont, &quot;Segoe WPC&quot;, &quot;Segoe UI&quot;, Ubuntu, &quot;Droid Sans&quot;, sans-serif, &quot;PingFang SC&quot;; font-size: 11px; text-rendering: geometricprecision; user-select: none; fill: rgb(255, 255, 255);">Activation</text></g><line class="node" x1="0" x2="113.5625" y1="57" y2="57" style="stroke: rgb(51, 51, 51); fill: none; stroke-width: 1px;"/><path class="node node-border" d="M5,0h103.5625a5,5 0 0 1 5,5v70a5,5 0 0 1 -5,5h-103.5625a5,5 0 0 1 -5,-5v-70a5,5 0 0 1 5,-5z" style="stroke: rgb(51, 51, 51); fill: none; stroke-width: 1px;"/></g><g id="node-name-max_pooling2d_2" class="node graph-node" style="" transform="translate(7.258056640625,593)"><g class="node-item node-item-type node-item-type-pool" transform="translate(0,0)"><path d="M5,0h89.04638671875a5,5 0 0 1 5,5v13a5,5 0 0 1 -5,5h-89.04638671875a5,5 0 0 1 -5,-5v-13a5,5 0 0 1 5,-5z" style="stroke: rgb(0, 0, 0); fill: rgb(51, 85, 51); stroke-width: 0;"/><text x="6" y="16" style="font-family: -apple-system, BlinkMacSystemFont, &quot;Segoe WPC&quot;, &quot;Segoe UI&quot;, Ubuntu, &quot;Droid Sans&quot;, sans-serif, &quot;PingFang SC&quot;; font-size: 11px; text-rendering: geometricprecision; user-select: none; fill: rgb(255, 255, 255);">max_pooling2d_2</text><title>MaxPooling2D</title></g><path class="node node-border" d="M5,0h89.04638671875a5,5 0 0 1 5,5v13a5,5 0 0 1 -5,5h-89.04638671875a5,5 0 0 1 -5,-5v-13a5,5 0 0 1 5,-5z" style="stroke: rgb(51, 51, 51); fill: none; stroke-width: 1px;"/></g><g id="node-name-flatten" class="node graph-node" style="" transform="translate(34.2109375,660)"><g class="node-item node-item-type node-item-type-shape" transform="translate(0,0)"><path d="M5,0h35.140625a5,5 0 0 1 5,5v13a5,5 0 0 1 -5,5h-35.140625a5,5 0 0 1 -5,-5v-13a5,5 0 0 1 5,-5z" style="stroke: rgb(0, 0, 0); fill: rgb(108, 79, 71); stroke-width: 0;"/><text x="6" y="16" style="font-family: -apple-system, BlinkMacSystemFont, &quot;Segoe WPC&quot;, &quot;Segoe UI&quot;, Ubuntu, &quot;Droid Sans&quot;, sans-serif, &quot;PingFang SC&quot;; font-size: 11px; text-rendering: geometricprecision; user-select: none; fill: rgb(255, 255, 255);">flatten</text><title>Flatten</title></g><path class="node node-border" d="M5,0h35.140625a5,5 0 0 1 5,5v13a5,5 0 0 1 -5,5h-35.140625a5,5 0 0 1 -5,-5v-13a5,5 0 0 1 5,-5z" style="stroke: rgb(51, 51, 51); fill: none; stroke-width: 1px;"/></g><g id="node-name-dense" class="node graph-node" style="" transform="translate(6.15625,727)"><g class="node-item node-item-type node-item-type-layer" transform="translate(0,0)"><path d="M5,0h91.25a5,5 0 0 1 5,5v18a0,0 0 0 1 0,0h-101.25a0,0 0 0 1 0,0v-18a5,5 0 0 1 5,-5z" style="stroke: rgb(0, 0, 0); fill: rgb(51, 85, 136); stroke-width: 0;"/><text x="6" y="16" style="font-family: -apple-system, BlinkMacSystemFont, &quot;Segoe WPC&quot;, &quot;Segoe UI&quot;, Ubuntu, &quot;Droid Sans&quot;, sans-serif, &quot;PingFang SC&quot;; font-size: 11px; text-rendering: geometricprecision; user-select: none; fill: rgb(255, 255, 255);">dense</text><title>Dense</title></g><g class="node-argument-list" transform="translate(0,23)"><path d="M0,0h101.25a0,0 0 0 1 0,0v34a0,0 0 0 1 0,0h-101.25a0,0 0 0 1 0,0v-34a0,0 0 0 1 0,0z" style="stroke: rgb(0, 0, 0); fill: rgb(255, 255, 255); stroke-width: 0;"/><g class="node-argument"><rect rx="3" ry="3" x="3" y="3" width="95.25" height="14" style="fill: transparent;"/><text xml:space="preserve" x="6" y="14" style="font-family: -apple-system, BlinkMacSystemFont, &quot;Segoe WPC&quot;, &quot;Segoe UI&quot;, Ubuntu, &quot;Droid Sans&quot;, sans-serif, &quot;PingFang SC&quot;; font-size: 9px; font-weight: normal; text-rendering: geometricprecision; user-select: none;"><title>float32[25600,256]</title><tspan style="font-weight: bold;">kernel</tspan><tspan>〈25600×256〉</tspan></text></g><g class="node-argument"><rect rx="3" ry="3" x="3" y="17" width="95.25" height="14" style="fill: transparent;"/><text xml:space="preserve" x="6" y="28" style="font-family: -apple-system, BlinkMacSystemFont, &quot;Segoe WPC&quot;, &quot;Segoe UI&quot;, Ubuntu, &quot;Droid Sans&quot;, sans-serif, &quot;PingFang SC&quot;; font-size: 9px; font-weight: normal; text-rendering: geometricprecision; user-select: none;"><title>float32[256]</title><tspan style="font-weight: bold;">bias</tspan><tspan>〈256〉</tspan></text></g><line class="node" x1="0" x2="101.25" y1="0" y2="0" style="stroke: rgb(51, 51, 51); fill: none; stroke-width: 1px;"/></g><g class="node-item node-item-type node-item-type-activation" transform="translate(0,57)"><path d="M0,0h101.25a0,0 0 0 1 0,0v18a5,5 0 0 1 -5,5h-91.25a5,5 0 0 1 -5,-5v-18a0,0 0 0 1 0,0z" style="stroke: rgb(0, 0, 0); fill: rgb(112, 41, 33); stroke-width: 0;"/><text x="6" y="16" style="font-family: -apple-system, BlinkMacSystemFont, &quot;Segoe WPC&quot;, &quot;Segoe UI&quot;, Ubuntu, &quot;Droid Sans&quot;, sans-serif, &quot;PingFang SC&quot;; font-size: 11px; text-rendering: geometricprecision; user-select: none; fill: rgb(255, 255, 255);">Activation</text></g><line class="node" x1="0" x2="101.25" y1="57" y2="57" style="stroke: rgb(51, 51, 51); fill: none; stroke-width: 1px;"/><path class="node node-border" d="M5,0h91.25a5,5 0 0 1 5,5v70a5,5 0 0 1 -5,5h-91.25a5,5 0 0 1 -5,-5v-70a5,5 0 0 1 5,-5z" style="stroke: rgb(51, 51, 51); fill: none; stroke-width: 1px;"/></g><g id="node-name-dense_1" class="node graph-node" style="" transform="translate(11.0078125,851)"><g class="node-item node-item-type node-item-type-layer" transform="translate(0,0)"><path d="M5,0h81.546875a5,5 0 0 1 5,5v18a0,0 0 0 1 0,0h-91.546875a0,0 0 0 1 0,0v-18a5,5 0 0 1 5,-5z" style="stroke: rgb(0, 0, 0); fill: rgb(51, 85, 136); stroke-width: 0;"/><text x="6" y="16" style="font-family: -apple-system, BlinkMacSystemFont, &quot;Segoe WPC&quot;, &quot;Segoe UI&quot;, Ubuntu, &quot;Droid Sans&quot;, sans-serif, &quot;PingFang SC&quot;; font-size: 11px; text-rendering: geometricprecision; user-select: none; fill: rgb(255, 255, 255);">dense_1</text><title>Dense</title></g><g class="node-argument-list" transform="translate(0,23)"><path d="M0,0h91.546875a0,0 0 0 1 0,0v34a0,0 0 0 1 0,0h-91.546875a0,0 0 0 1 0,0v-34a0,0 0 0 1 0,0z" style="stroke: rgb(0, 0, 0); fill: rgb(255, 255, 255); stroke-width: 0;"/><g class="node-argument"><rect rx="3" ry="3" x="3" y="3" width="85.546875" height="14" style="fill: transparent;"/><text xml:space="preserve" x="6" y="14" style="font-family: -apple-system, BlinkMacSystemFont, &quot;Segoe WPC&quot;, &quot;Segoe UI&quot;, Ubuntu, &quot;Droid Sans&quot;, sans-serif, &quot;PingFang SC&quot;; font-size: 9px; font-weight: normal; text-rendering: geometricprecision; user-select: none;"><title>float32[256,128]</title><tspan style="font-weight: bold;">kernel</tspan><tspan>〈256×128〉</tspan></text></g><g class="node-argument"><rect rx="3" ry="3" x="3" y="17" width="85.546875" height="14" style="fill: transparent;"/><text xml:space="preserve" x="6" y="28" style="font-family: -apple-system, BlinkMacSystemFont, &quot;Segoe WPC&quot;, &quot;Segoe UI&quot;, Ubuntu, &quot;Droid Sans&quot;, sans-serif, &quot;PingFang SC&quot;; font-size: 9px; font-weight: normal; text-rendering: geometricprecision; user-select: none;"><title>float32[128]</title><tspan style="font-weight: bold;">bias</tspan><tspan>〈128〉</tspan></text></g><line class="node" x1="0" x2="91.546875" y1="0" y2="0" style="stroke: rgb(51, 51, 51); fill: none; stroke-width: 1px;"/></g><g class="node-item node-item-type node-item-type-activation" transform="translate(0,57)"><path d="M0,0h91.546875a0,0 0 0 1 0,0v18a5,5 0 0 1 -5,5h-81.546875a5,5 0 0 1 -5,-5v-18a0,0 0 0 1 0,0z" style="stroke: rgb(0, 0, 0); fill: rgb(112, 41, 33); stroke-width: 0;"/><text x="6" y="16" style="font-family: -apple-system, BlinkMacSystemFont, &quot;Segoe WPC&quot;, &quot;Segoe UI&quot;, Ubuntu, &quot;Droid Sans&quot;, sans-serif, &quot;PingFang SC&quot;; font-size: 11px; text-rendering: geometricprecision; user-select: none; fill: rgb(255, 255, 255);">Activation</text></g><line class="node" x1="0" x2="91.546875" y1="57" y2="57" style="stroke: rgb(51, 51, 51); fill: none; stroke-width: 1px;"/><path class="node node-border" d="M5,0h81.546875a5,5 0 0 1 5,5v70a5,5 0 0 1 -5,5h-81.546875a5,5 0 0 1 -5,-5v-70a5,5 0 0 1 5,-5z" style="stroke: rgb(51, 51, 51); fill: none; stroke-width: 1px;"/></g><g id="node-name-dense_2" class="node graph-node" style="" transform="translate(13.4375,975)"><g class="node-item node-item-type node-item-type-layer" transform="translate(0,0)"><path d="M5,0h76.6875a5,5 0 0 1 5,5v18a0,0 0 0 1 0,0h-86.6875a0,0 0 0 1 0,0v-18a5,5 0 0 1 5,-5z" style="stroke: rgb(0, 0, 0); fill: rgb(51, 85, 136); stroke-width: 0;"/><text x="6" y="16" style="font-family: -apple-system, BlinkMacSystemFont, &quot;Segoe WPC&quot;, &quot;Segoe UI&quot;, Ubuntu, &quot;Droid Sans&quot;, sans-serif, &quot;PingFang SC&quot;; font-size: 11px; text-rendering: geometricprecision; user-select: none; fill: rgb(255, 255, 255);">dense_2</text><title>Dense</title></g><g class="node-argument-list" transform="translate(0,23)"><path d="M0,0h86.6875a0,0 0 0 1 0,0v34a0,0 0 0 1 0,0h-86.6875a0,0 0 0 1 0,0v-34a0,0 0 0 1 0,0z" style="stroke: rgb(0, 0, 0); fill: rgb(255, 255, 255); stroke-width: 0;"/><g class="node-argument"><rect rx="3" ry="3" x="3" y="3" width="80.6875" height="14" style="fill: transparent;"/><text xml:space="preserve" x="6" y="14" style="font-family: -apple-system, BlinkMacSystemFont, &quot;Segoe WPC&quot;, &quot;Segoe UI&quot;, Ubuntu, &quot;Droid Sans&quot;, sans-serif, &quot;PingFang SC&quot;; font-size: 9px; font-weight: normal; text-rendering: geometricprecision; user-select: none;"><title>float32[128,64]</title><tspan style="font-weight: bold;">kernel</tspan><tspan>〈128×64〉</tspan></text></g><g class="node-argument"><rect rx="3" ry="3" x="3" y="17" width="80.6875" height="14" style="fill: transparent;"/><text xml:space="preserve" x="6" y="28" style="font-family: -apple-system, BlinkMacSystemFont, &quot;Segoe WPC&quot;, &quot;Segoe UI&quot;, Ubuntu, &quot;Droid Sans&quot;, sans-serif, &quot;PingFang SC&quot;; font-size: 9px; font-weight: normal; text-rendering: geometricprecision; user-select: none;"><title>float32[64]</title><tspan style="font-weight: bold;">bias</tspan><tspan>〈64〉</tspan></text></g><line class="node" x1="0" x2="86.6875" y1="0" y2="0" style="stroke: rgb(51, 51, 51); fill: none; stroke-width: 1px;"/></g><g class="node-item node-item-type node-item-type-activation" transform="translate(0,57)"><path d="M0,0h86.6875a0,0 0 0 1 0,0v18a5,5 0 0 1 -5,5h-76.6875a5,5 0 0 1 -5,-5v-18a0,0 0 0 1 0,0z" style="stroke: rgb(0, 0, 0); fill: rgb(112, 41, 33); stroke-width: 0;"/><text x="6" y="16" style="font-family: -apple-system, BlinkMacSystemFont, &quot;Segoe WPC&quot;, &quot;Segoe UI&quot;, Ubuntu, &quot;Droid Sans&quot;, sans-serif, &quot;PingFang SC&quot;; font-size: 11px; text-rendering: geometricprecision; user-select: none; fill: rgb(255, 255, 255);">Activation</text></g><line class="node" x1="0" x2="86.6875" y1="57" y2="57" style="stroke: rgb(51, 51, 51); fill: none; stroke-width: 1px;"/><path class="node node-border" d="M5,0h76.6875a5,5 0 0 1 5,5v70a5,5 0 0 1 -5,5h-76.6875a5,5 0 0 1 -5,-5v-70a5,5 0 0 1 5,-5z" style="stroke: rgb(51, 51, 51); fill: none; stroke-width: 1px;"/></g><g id="node-name-dense_3" class="node graph-node" style="" transform="translate(18.2890625,1099)"><g class="node-item node-item-type node-item-type-layer" transform="translate(0,0)"><path d="M5,0h66.984375a5,5 0 0 1 5,5v18a0,0 0 0 1 0,0h-76.984375a0,0 0 0 1 0,0v-18a5,5 0 0 1 5,-5z" style="stroke: rgb(0, 0, 0); fill: rgb(51, 85, 136); stroke-width: 0;"/><text x="6" y="16" style="font-family: -apple-system, BlinkMacSystemFont, &quot;Segoe WPC&quot;, &quot;Segoe UI&quot;, Ubuntu, &quot;Droid Sans&quot;, sans-serif, &quot;PingFang SC&quot;; font-size: 11px; text-rendering: geometricprecision; user-select: none; fill: rgb(255, 255, 255);">dense_3</text><title>Dense</title></g><g class="node-argument-list" transform="translate(0,23)"><path d="M0,0h76.984375a0,0 0 0 1 0,0v34a0,0 0 0 1 0,0h-76.984375a0,0 0 0 1 0,0v-34a0,0 0 0 1 0,0z" style="stroke: rgb(0, 0, 0); fill: rgb(255, 255, 255); stroke-width: 0;"/><g class="node-argument"><rect rx="3" ry="3" x="3" y="3" width="70.984375" height="14" style="fill: transparent;"/><text xml:space="preserve" x="6" y="14" style="font-family: -apple-system, BlinkMacSystemFont, &quot;Segoe WPC&quot;, &quot;Segoe UI&quot;, Ubuntu, &quot;Droid Sans&quot;, sans-serif, &quot;PingFang SC&quot;; font-size: 9px; font-weight: normal; text-rendering: geometricprecision; user-select: none;"><title>float32[64,1]</title><tspan style="font-weight: bold;">kernel</tspan><tspan>〈64×1〉</tspan></text></g><g class="node-argument"><rect rx="3" ry="3" x="3" y="17" width="70.984375" height="14" style="fill: transparent;"/><text xml:space="preserve" x="6" y="28" style="font-family: -apple-system, BlinkMacSystemFont, &quot;Segoe WPC&quot;, &quot;Segoe UI&quot;, Ubuntu, &quot;Droid Sans&quot;, sans-serif, &quot;PingFang SC&quot;; font-size: 9px; font-weight: normal; text-rendering: geometricprecision; user-select: none;"><title>float32[1]</title><tspan style="font-weight: bold;">bias</tspan><tspan>〈1〉</tspan></text></g><line class="node" x1="0" x2="76.984375" y1="0" y2="0" style="stroke: rgb(51, 51, 51); fill: none; stroke-width: 1px;"/></g><g class="node-item node-item-type node-item-type-activation" transform="translate(0,57)"><path d="M0,0h76.984375a0,0 0 0 1 0,0v18a5,5 0 0 1 -5,5h-66.984375a5,5 0 0 1 -5,-5v-18a0,0 0 0 1 0,0z" style="stroke: rgb(0, 0, 0); fill: rgb(112, 41, 33); stroke-width: 0;"/><text x="6" y="16" style="font-family: -apple-system, BlinkMacSystemFont, &quot;Segoe WPC&quot;, &quot;Segoe UI&quot;, Ubuntu, &quot;Droid Sans&quot;, sans-serif, &quot;PingFang SC&quot;; font-size: 11px; text-rendering: geometricprecision; user-select: none; fill: rgb(255, 255, 255);">Activation</text></g><line class="node" x1="0" x2="76.984375" y1="57" y2="57" style="stroke: rgb(51, 51, 51); fill: none; stroke-width: 1px;"/><path class="node node-border" d="M5,0h66.984375a5,5 0 0 1 5,5v70a5,5 0 0 1 -5,5h-66.984375a5,5 0 0 1 -5,-5v-70a5,5 0 0 1 5,-5z" style="stroke: rgb(51, 51, 51); fill: none; stroke-width: 1px;"/></g><g class="node" style="" transform="translate(30.06103515625,1223)"><g class="node-item graph-item-output" transform="translate(0,0)"><path d="M5,0h43.4404296875a5,5 0 0 1 5,5v13a5,5 0 0 1 -5,5h-43.4404296875a5,5 0 0 1 -5,-5v-13a5,5 0 0 1 5,-5z" style="stroke: rgb(0, 0, 0); fill: rgb(238, 238, 238); stroke-width: 0;"/><text x="6" y="16" style="font-family: -apple-system, BlinkMacSystemFont, &quot;Segoe WPC&quot;, &quot;Segoe UI&quot;, Ubuntu, &quot;Droid Sans&quot;, sans-serif, &quot;PingFang SC&quot;; font-size: 11px; text-rendering: geometricprecision; user-select: none;">dense_3</text></g><path class="node node-border" d="M5,0h43.4404296875a5,5 0 0 1 5,5v13a5,5 0 0 1 -5,5h-43.4404296875a5,5 0 0 1 -5,-5v-13a5,5 0 0 1 5,-5z" style="stroke: rgb(51, 51, 51); fill: none; stroke-width: 1px;"/></g></g></g></svg>