<svg xmlns="http://www.w3.org/2000/svg" id="export" class="canvas" preserveAspectRatio="xMidYMid meet" style="" width="427" height="1000"><rect id="background" fill="#fff" pointer-events="all" width="427" height="1000"/><g id="origin" transform="translate(19.395703125, 19.395703125) scale(1)"><g id="clusters" class="clusters"/><g id="edge-paths" class="edge-paths"><defs><marker id="arrowhead" viewBox="0 0 10 10" refX="9" refY="5" markerUnits="strokeWidth" markerWidth="8" markerHeight="6" orient="auto" style="fill: rgb(0, 0, 0);"><path d="M 0 0 L 10 5 L 0 10 L 4 5 z" style="stroke-width: 1;"/></marker><marker id="arrowhead-select" viewBox="0 0 10 10" refX="9" refY="5" markerUnits="strokeWidth" markerWidth="8" markerHeight="6" orient="auto" style="fill: rgba(220, 0, 0, 0.9);"><path d="M 0 0 L 10 5 L 0 10 L 4 5 z" style="stroke-width: 1;"/></marker><marker id="arrowhead-hover" viewBox="0 0 10 10" refX="9" refY="5" markerUnits="strokeWidth" markerWidth="8" markerHeight="6" orient="auto" style="fill: rgba(220, 0, 0, 0.9);"><path d="M 0 0 L 10 5 L 0 10 L 4 5 z" style="stroke-width: 1;"/></marker></defs><path id="edge-input_1[0][0]" class="edge-path" d="M164.11328125,23L164.11328125,24.666666666666668C164.11328125,26.333333333333332,164.11328125,29.666666666666668,164.11328125,35C164.11328125,40.333333333333336,164.11328125,47.666666666666664,164.11328125,55C164.11328125,62.333333333333336,164.11328125,69.66666666666667,164.11328125,75C164.11328125,80.33333333333333,164.11328125,83.66666666666667,164.11328125,85.33333333333333L164.11328125,87" style="stroke: rgb(0, 0, 0); stroke-width: 1px; fill: none; marker-end: url(&quot;#arrowhead&quot;);"/><path class="edge-path-hit-test" d="M164.11328125,23L164.11328125,24.666666666666668C164.11328125,26.333333333333332,164.11328125,29.666666666666668,164.11328125,35C164.11328125,40.333333333333336,164.11328125,47.666666666666664,164.11328125,55C164.11328125,62.333333333333336,164.11328125,69.66666666666667,164.11328125,75C164.11328125,80.33333333333333,164.11328125,83.66666666666667,164.11328125,85.33333333333333L164.11328125,87" style="pointer-events: stroke; stroke-width: 0.5em; fill: none; stroke: rgb(0, 0, 0); stroke-opacity: 0.001;"/><path id="edge-embedding[0][0]" class="edge-path" d="M110.19921875,128.42721298416808L99.56966145833333,132.35601082014009C88.94010416666667,136.28480865611206,67.68098958333333,144.14240432805602,57.051432291666664,151.73786883069468C46.421875,159.33333333333334,46.421875,166.66666666666666,46.421875,170.33333333333334L46.421875,174" style="stroke: rgb(0, 0, 0); stroke-width: 1px; fill: none; marker-end: url(&quot;#arrowhead&quot;);"/><path class="edge-path-hit-test" d="M110.19921875,128.42721298416808L99.56966145833333,132.35601082014009C88.94010416666667,136.28480865611206,67.68098958333333,144.14240432805602,57.051432291666664,151.73786883069468C46.421875,159.33333333333334,46.421875,166.66666666666666,46.421875,170.33333333333334L46.421875,174" style="pointer-events: stroke; stroke-width: 0.5em; fill: none; stroke: rgb(0, 0, 0); stroke-opacity: 0.001;"/><path id="edge-embedding[0][0]" class="edge-path" d="M162.91819324712642,130L162.71437978927202,133.66666666666666C162.5105663314176,137.33333333333334,162.1029394157088,144.66666666666666,161.8991259578544,152C161.6953125,159.33333333333334,161.6953125,166.66666666666666,161.6953125,170.33333333333334L161.6953125,174" style="stroke: rgb(0, 0, 0); stroke-width: 1px; fill: none; marker-end: url(&quot;#arrowhead&quot;);"/><path class="edge-path-hit-test" d="M162.91819324712642,130L162.71437978927202,133.66666666666666C162.5105663314176,137.33333333333334,162.1029394157088,144.66666666666666,161.8991259578544,152C161.6953125,159.33333333333334,161.6953125,166.66666666666666,161.6953125,170.33333333333334L161.6953125,174" style="pointer-events: stroke; stroke-width: 0.5em; fill: none; stroke: rgb(0, 0, 0); stroke-opacity: 0.001;"/><path id="edge-embedding[0][0]" class="edge-path" d="M218.02734375,128.42721298416808L228.65690104166666,132.35601082014009C239.28645833333334,136.28480865611206,260.5455729166667,144.14240432805602,271.1751302083333,151.73786883069468C281.8046875,159.33333333333334,281.8046875,166.66666666666666,281.8046875,170.33333333333334L281.8046875,174" style="stroke: rgb(0, 0, 0); stroke-width: 1px; fill: none; marker-end: url(&quot;#arrowhead&quot;);"/><path class="edge-path-hit-test" d="M218.02734375,128.42721298416808L228.65690104166666,132.35601082014009C239.28645833333334,136.28480865611206,260.5455729166667,144.14240432805602,271.1751302083333,151.73786883069468C281.8046875,159.33333333333334,281.8046875,166.66666666666666,281.8046875,170.33333333333334L281.8046875,174" style="pointer-events: stroke; stroke-width: 0.5em; fill: none; stroke: rgb(0, 0, 0); stroke-opacity: 0.001;"/><path id="edge-conv1d[0][0]" class="edge-path" d="M46.421875,254L46.421875,257.6666666666667C46.421875,261.3333333333333,46.421875,268.6666666666667,46.421875,276C46.421875,283.3333333333333,46.421875,290.6666666666667,46.421875,294.3333333333333L46.421875,298" style="stroke: rgb(0, 0, 0); stroke-width: 1px; fill: none; marker-end: url(&quot;#arrowhead&quot;);"/><path class="edge-path-hit-test" d="M46.421875,254L46.421875,257.6666666666667C46.421875,261.3333333333333,46.421875,268.6666666666667,46.421875,276C46.421875,283.3333333333333,46.421875,290.6666666666667,46.421875,294.3333333333333L46.421875,298" style="pointer-events: stroke; stroke-width: 0.5em; fill: none; stroke: rgb(0, 0, 0); stroke-opacity: 0.001;"/><path id="edge-conv1d_1[0][0]" class="edge-path" d="M161.6953125,254L161.6953125,257.6666666666667C161.6953125,261.3333333333333,161.6953125,268.6666666666667,161.6953125,276C161.6953125,283.3333333333333,161.6953125,290.6666666666667,161.6953125,294.3333333333333L161.6953125,298" style="stroke: rgb(0, 0, 0); stroke-width: 1px; fill: none; marker-end: url(&quot;#arrowhead&quot;);"/><path class="edge-path-hit-test" d="M161.6953125,254L161.6953125,257.6666666666667C161.6953125,261.3333333333333,161.6953125,268.6666666666667,161.6953125,276C161.6953125,283.3333333333333,161.6953125,290.6666666666667,161.6953125,294.3333333333333L161.6953125,298" style="pointer-events: stroke; stroke-width: 0.5em; fill: none; stroke: rgb(0, 0, 0); stroke-opacity: 0.001;"/><path id="edge-conv1d_2[0][0]" class="edge-path" d="M281.8046875,254L281.8046875,257.6666666666667C281.8046875,261.3333333333333,281.8046875,268.6666666666667,281.8046875,276C281.8046875,283.3333333333333,281.8046875,290.6666666666667,281.8046875,294.3333333333333L281.8046875,298" style="stroke: rgb(0, 0, 0); stroke-width: 1px; fill: none; marker-end: url(&quot;#arrowhead&quot;);"/><path class="edge-path-hit-test" d="M281.8046875,254L281.8046875,257.6666666666667C281.8046875,261.3333333333333,281.8046875,268.6666666666667,281.8046875,276C281.8046875,283.3333333333333,281.8046875,290.6666666666667,281.8046875,294.3333333333333L281.8046875,298" style="pointer-events: stroke; stroke-width: 0.5em; fill: none; stroke: rgb(0, 0, 0); stroke-opacity: 0.001;"/><path id="edge-max_pooling1d[0][0]" class="edge-path" d="M46.421875,321L46.421875,324.6666666666667C46.421875,328.3333333333333,46.421875,335.6666666666667,59.915568033854164,343.17421459252995C73.40926106770833,350.6817625183931,100.39664713541667,358.36352503678626,113.89034016927083,362.20440629598284L127.384033203125,366.0452875551794" style="stroke: rgb(0, 0, 0); stroke-width: 1px; fill: none; marker-end: url(&quot;#arrowhead&quot;);"/><path class="edge-path-hit-test" d="M46.421875,321L46.421875,324.6666666666667C46.421875,328.3333333333333,46.421875,335.6666666666667,59.915568033854164,343.17421459252995C73.40926106770833,350.6817625183931,100.39664713541667,358.36352503678626,113.89034016927083,362.20440629598284L127.384033203125,366.0452875551794" style="pointer-events: stroke; stroke-width: 0.5em; fill: none; stroke: rgb(0, 0, 0); stroke-opacity: 0.001;"/><path id="edge-max_pooling1d_1[0][0]" class="edge-path" d="M161.6953125,321L161.6953125,324.6666666666667C161.6953125,328.3333333333333,161.6953125,335.6666666666667,161.9599657960199,343C162.2246190920398,350.3333333333333,162.7539256840796,357.6666666666667,163.0185789800995,361.3333333333333L163.2832322761194,365" style="stroke: rgb(0, 0, 0); stroke-width: 1px; fill: none; marker-end: url(&quot;#arrowhead&quot;);"/><path class="edge-path-hit-test" d="M161.6953125,321L161.6953125,324.6666666666667C161.6953125,328.3333333333333,161.6953125,335.6666666666667,161.9599657960199,343C162.2246190920398,350.3333333333333,162.7539256840796,357.6666666666667,163.0185789800995,361.3333333333333L163.2832322761194,365" style="pointer-events: stroke; stroke-width: 0.5em; fill: none; stroke: rgb(0, 0, 0); stroke-opacity: 0.001;"/><path id="edge-max_pooling1d_2[0][0]" class="edge-path" d="M281.8046875,321L281.8046875,324.6666666666667C281.8046875,328.3333333333333,281.8046875,335.6666666666667,268.3109944661458,343.17421459252995C254.81730143229166,350.6817625183931,227.82991536458334,358.36352503678626,214.33622233072916,362.20440629598284L200.842529296875,366.0452875551794" style="stroke: rgb(0, 0, 0); stroke-width: 1px; fill: none; marker-end: url(&quot;#arrowhead&quot;);"/><path class="edge-path-hit-test" d="M281.8046875,321L281.8046875,324.6666666666667C281.8046875,328.3333333333333,281.8046875,335.6666666666667,268.3109944661458,343.17421459252995C254.81730143229166,350.6817625183931,227.82991536458334,358.36352503678626,214.33622233072916,362.20440629598284L200.842529296875,366.0452875551794" style="pointer-events: stroke; stroke-width: 0.5em; fill: none; stroke: rgb(0, 0, 0); stroke-opacity: 0.001;"/><path id="edge-concatenate[0][0]" class="edge-path" d="M164.11328125,388L164.11328125,391.6666666666667C164.11328125,395.3333333333333,164.11328125,402.6666666666667,164.11328125,410C164.11328125,417.3333333333333,164.11328125,424.6666666666667,164.11328125,428.3333333333333L164.11328125,432" style="stroke: rgb(0, 0, 0); stroke-width: 1px; fill: none; marker-end: url(&quot;#arrowhead&quot;);"/><path class="edge-path-hit-test" d="M164.11328125,388L164.11328125,391.6666666666667C164.11328125,395.3333333333333,164.11328125,402.6666666666667,164.11328125,410C164.11328125,417.3333333333333,164.11328125,424.6666666666667,164.11328125,428.3333333333333L164.11328125,432" style="pointer-events: stroke; stroke-width: 0.5em; fill: none; stroke: rgb(0, 0, 0); stroke-opacity: 0.001;"/><path id="edge-flatten[0][0]" class="edge-path" d="M164.11328125,455L164.11328125,458.6666666666667C164.11328125,462.3333333333333,164.11328125,469.6666666666667,164.11328125,477C164.11328125,484.3333333333333,164.11328125,491.6666666666667,164.11328125,495.3333333333333L164.11328125,499" style="stroke: rgb(0, 0, 0); stroke-width: 1px; fill: none; marker-end: url(&quot;#arrowhead&quot;);"/><path class="edge-path-hit-test" d="M164.11328125,455L164.11328125,458.6666666666667C164.11328125,462.3333333333333,164.11328125,469.6666666666667,164.11328125,477C164.11328125,484.3333333333333,164.11328125,491.6666666666667,164.11328125,495.3333333333333L164.11328125,499" style="pointer-events: stroke; stroke-width: 0.5em; fill: none; stroke: rgb(0, 0, 0); stroke-opacity: 0.001;"/><path id="edge-dropout[0][0]" class="edge-path" d="M164.11328125,522L164.11328125,525.6666666666666C164.11328125,529.3333333333334,164.11328125,536.6666666666666,164.11328125,544C164.11328125,551.3333333333334,164.11328125,558.6666666666666,164.11328125,562.3333333333334L164.11328125,566" style="stroke: rgb(0, 0, 0); stroke-width: 1px; fill: none; marker-end: url(&quot;#arrowhead&quot;);"/><path class="edge-path-hit-test" d="M164.11328125,522L164.11328125,525.6666666666666C164.11328125,529.3333333333334,164.11328125,536.6666666666666,164.11328125,544C164.11328125,551.3333333333334,164.11328125,558.6666666666666,164.11328125,562.3333333333334L164.11328125,566" style="pointer-events: stroke; stroke-width: 0.5em; fill: none; stroke: rgb(0, 0, 0); stroke-opacity: 0.001;"/><path id="edge-dense[0][0]" class="edge-path" d="M164.11328125,646L164.11328125,649.6666666666666C164.11328125,653.3333333333334,164.11328125,660.6666666666666,164.11328125,668C164.11328125,675.3333333333334,164.11328125,682.6666666666666,164.11328125,686.3333333333334L164.11328125,690" style="stroke: rgb(0, 0, 0); stroke-width: 1px; fill: none; marker-end: url(&quot;#arrowhead&quot;);"/><path class="edge-path-hit-test" d="M164.11328125,646L164.11328125,649.6666666666666C164.11328125,653.3333333333334,164.11328125,660.6666666666666,164.11328125,668C164.11328125,675.3333333333334,164.11328125,682.6666666666666,164.11328125,686.3333333333334L164.11328125,690" style="pointer-events: stroke; stroke-width: 0.5em; fill: none; stroke: rgb(0, 0, 0); stroke-opacity: 0.001;"/><path id="edge-dense_1[0][0]" class="edge-path" d="M164.11328125,770L164.11328125,773.6666666666666C164.11328125,777.3333333333334,164.11328125,784.6666666666666,164.11328125,792C164.11328125,799.3333333333334,164.11328125,806.6666666666666,164.11328125,810.3333333333334L164.11328125,814" style="stroke: rgb(0, 0, 0); stroke-width: 1px; fill: none; marker-end: url(&quot;#arrowhead&quot;);"/><path class="edge-path-hit-test" d="M164.11328125,770L164.11328125,773.6666666666666C164.11328125,777.3333333333334,164.11328125,784.6666666666666,164.11328125,792C164.11328125,799.3333333333334,164.11328125,806.6666666666666,164.11328125,810.3333333333334L164.11328125,814" style="pointer-events: stroke; stroke-width: 0.5em; fill: none; stroke: rgb(0, 0, 0); stroke-opacity: 0.001;"/><path id="edge-dense_2[0][0]" class="edge-path" d="M164.11328125,894L164.11328125,897.6666666666666C164.11328125,901.3333333333334,164.11328125,908.6666666666666,164.11328125,916C164.11328125,923.3333333333334,164.11328125,930.6666666666666,164.11328125,934.3333333333334L164.11328125,938" style="stroke: rgb(0, 0, 0); stroke-width: 1px; fill: none; marker-end: url(&quot;#arrowhead&quot;);"/><path class="edge-path-hit-test" d="M164.11328125,894L164.11328125,897.6666666666666C164.11328125,901.3333333333334,164.11328125,908.6666666666666,164.11328125,916C164.11328125,923.3333333333334,164.11328125,930.6666666666666,164.11328125,934.3333333333334L164.11328125,938" style="pointer-events: stroke; stroke-width: 0.5em; fill: none; stroke: rgb(0, 0, 0); stroke-opacity: 0.001;"/></g><g id="edge-labels" class="edge-labels"><text class="edge-label" id="edge-label-edge-input_1[0][0]" style="opacity: 1; font-family: -apple-system, BlinkMacSystemFont, &quot;Segoe WPC&quot;, &quot;Segoe UI&quot;, Ubuntu, &quot;Droid Sans&quot;, sans-serif, &quot;PingFang SC&quot;; font-size: 10px;" transform="translate(169.11328125,48)"><tspan xml:space="preserve" dy="1em" x="1">input_1[0][0]</tspan></text><text class="edge-label" id="edge-label-edge-embedding[0][0]" style="opacity: 1; font-family: -apple-system, BlinkMacSystemFont, &quot;Segoe WPC&quot;, &quot;Segoe UI&quot;, Ubuntu, &quot;Droid Sans&quot;, sans-serif, &quot;PingFang SC&quot;; font-size: 10px;" transform="translate(51.421875,145)"><tspan xml:space="preserve" dy="1em" x="1">embedding[0][0]</tspan></text><text class="edge-label" id="edge-label-edge-embedding[0][0]" style="opacity: 1; font-family: -apple-system, BlinkMacSystemFont, &quot;Segoe WPC&quot;, &quot;Segoe UI&quot;, Ubuntu, &quot;Droid Sans&quot;, sans-serif, &quot;PingFang SC&quot;; font-size: 10px;" transform="translate(166.6953125,145)"><tspan xml:space="preserve" dy="1em" x="1">embedding[0][0]</tspan></text><text class="edge-label" id="edge-label-edge-embedding[0][0]" style="opacity: 1; font-family: -apple-system, BlinkMacSystemFont, &quot;Segoe WPC&quot;, &quot;Segoe UI&quot;, Ubuntu, &quot;Droid Sans&quot;, sans-serif, &quot;PingFang SC&quot;; font-size: 10px;" transform="translate(286.8046875,145)"><tspan xml:space="preserve" dy="1em" x="1">embedding[0][0]</tspan></text><text class="edge-label" id="edge-label-edge-conv1d[0][0]" style="opacity: 1; font-family: -apple-system, BlinkMacSystemFont, &quot;Segoe WPC&quot;, &quot;Segoe UI&quot;, Ubuntu, &quot;Droid Sans&quot;, sans-serif, &quot;PingFang SC&quot;; font-size: 10px;" transform="translate(51.421875,269)"><tspan xml:space="preserve" dy="1em" x="1">conv1d[0][0]</tspan></text><text class="edge-label" id="edge-label-edge-conv1d_1[0][0]" style="opacity: 1; font-family: -apple-system, BlinkMacSystemFont, &quot;Segoe WPC&quot;, &quot;Segoe UI&quot;, Ubuntu, &quot;Droid Sans&quot;, sans-serif, &quot;PingFang SC&quot;; font-size: 10px;" transform="translate(166.6953125,269)"><tspan xml:space="preserve" dy="1em" x="1">conv1d_1[0][0]</tspan></text><text class="edge-label" id="edge-label-edge-conv1d_2[0][0]" style="opacity: 1; font-family: -apple-system, BlinkMacSystemFont, &quot;Segoe WPC&quot;, &quot;Segoe UI&quot;, Ubuntu, &quot;Droid Sans&quot;, sans-serif, &quot;PingFang SC&quot;; font-size: 10px;" transform="translate(286.8046875,269)"><tspan xml:space="preserve" dy="1em" x="1">conv1d_2[0][0]</tspan></text><text class="edge-label" id="edge-label-edge-max_pooling1d[0][0]" style="opacity: 1; font-family: -apple-system, BlinkMacSystemFont, &quot;Segoe WPC&quot;, &quot;Segoe UI&quot;, Ubuntu, &quot;Droid Sans&quot;, sans-serif, &quot;PingFang SC&quot;; font-size: 10px;" transform="translate(51.421875,336)"><tspan xml:space="preserve" dy="1em" x="1">max_pooling1d[0][0]</tspan></text><text class="edge-label" id="edge-label-edge-max_pooling1d_1[0][0]" style="opacity: 1; font-family: -apple-system, BlinkMacSystemFont, &quot;Segoe WPC&quot;, &quot;Segoe UI&quot;, Ubuntu, &quot;Droid Sans&quot;, sans-serif, &quot;PingFang SC&quot;; font-size: 10px;" transform="translate(166.6953125,336)"><tspan xml:space="preserve" dy="1em" x="1">max_pooling1d_1[0][0]</tspan></text><text class="edge-label" id="edge-label-edge-max_pooling1d_2[0][0]" style="opacity: 1; font-family: -apple-system, BlinkMacSystemFont, &quot;Segoe WPC&quot;, &quot;Segoe UI&quot;, Ubuntu, &quot;Droid Sans&quot;, sans-serif, &quot;PingFang SC&quot;; font-size: 10px;" transform="translate(286.8046875,336)"><tspan xml:space="preserve" dy="1em" x="1">max_pooling1d_2[0][0]</tspan></text><text class="edge-label" id="edge-label-edge-concatenate[0][0]" style="opacity: 1; font-family: -apple-system, BlinkMacSystemFont, &quot;Segoe WPC&quot;, &quot;Segoe UI&quot;, Ubuntu, &quot;Droid Sans&quot;, sans-serif, &quot;PingFang SC&quot;; font-size: 10px;" transform="translate(169.11328125,403)"><tspan xml:space="preserve" dy="1em" x="1">concatenate[0][0]</tspan></text><text class="edge-label" id="edge-label-edge-flatten[0][0]" style="opacity: 1; font-family: -apple-system, BlinkMacSystemFont, &quot;Segoe WPC&quot;, &quot;Segoe UI&quot;, Ubuntu, &quot;Droid Sans&quot;, sans-serif, &quot;PingFang SC&quot;; font-size: 10px;" transform="translate(169.11328125,470)"><tspan xml:space="preserve" dy="1em" x="1">flatten[0][0]</tspan></text><text class="edge-label" id="edge-label-edge-dropout[0][0]" style="opacity: 1; font-family: -apple-system, BlinkMacSystemFont, &quot;Segoe WPC&quot;, &quot;Segoe UI&quot;, Ubuntu, &quot;Droid Sans&quot;, sans-serif, &quot;PingFang SC&quot;; font-size: 10px;" transform="translate(169.11328125,537)"><tspan xml:space="preserve" dy="1em" x="1">dropout[0][0]</tspan></text><text class="edge-label" id="edge-label-edge-dense[0][0]" style="opacity: 1; font-family: -apple-system, BlinkMacSystemFont, &quot;Segoe WPC&quot;, &quot;Segoe UI&quot;, Ubuntu, &quot;Droid Sans&quot;, sans-serif, &quot;PingFang SC&quot;; font-size: 10px;" transform="translate(169.11328125,661)"><tspan xml:space="preserve" dy="1em" x="1">dense[0][0]</tspan></text><text class="edge-label" id="edge-label-edge-dense_1[0][0]" style="opacity: 1; font-family: -apple-system, BlinkMacSystemFont, &quot;Segoe WPC&quot;, &quot;Segoe UI&quot;, Ubuntu, &quot;Droid Sans&quot;, sans-serif, &quot;PingFang SC&quot;; font-size: 10px;" transform="translate(169.11328125,785)"><tspan xml:space="preserve" dy="1em" x="1">dense_1[0][0]</tspan></text><text class="edge-label" id="edge-label-edge-dense_2[0][0]" style="opacity: 1; font-family: -apple-system, BlinkMacSystemFont, &quot;Segoe WPC&quot;, &quot;Segoe UI&quot;, Ubuntu, &quot;Droid Sans&quot;, sans-serif, &quot;PingFang SC&quot;; font-size: 10px;" transform="translate(169.11328125,909)"><tspan xml:space="preserve" dy="1em" x="1">dense_2[0][0]</tspan></text></g><g id="nodes" class="nodes"><g id="input-name-input_1" class="node graph-input" style="" transform="translate(139.20703125,0)"><g class="node-item graph-item-input" transform="translate(0,0)"><path d="M5,0h39.8125a5,5 0 0 1 5,5v13a5,5 0 0 1 -5,5h-39.8125a5,5 0 0 1 -5,-5v-13a5,5 0 0 1 5,-5z" style="stroke: rgb(0, 0, 0); fill: rgb(238, 238, 238); stroke-width: 0;"/><text x="6" y="16" style="font-family: -apple-system, BlinkMacSystemFont, &quot;Segoe WPC&quot;, &quot;Segoe UI&quot;, Ubuntu, &quot;Droid Sans&quot;, sans-serif, &quot;PingFang SC&quot;; font-size: 11px; text-rendering: geometricprecision; user-select: none;">input_1</text><title>float32[?,1000]</title></g><path class="node node-border" d="M5,0h39.8125a5,5 0 0 1 5,5v13a5,5 0 0 1 -5,5h-39.8125a5,5 0 0 1 -5,-5v-13a5,5 0 0 1 5,-5z" style="stroke: rgb(51, 51, 51); fill: none; stroke-width: 1px;"/></g><g id="node-name-embedding" class="node graph-node" style="" transform="translate(110.19921875,87)"><g class="node-item node-item-type node-item-type-transform" transform="translate(0,0)"><path d="M5,0h97.828125a5,5 0 0 1 5,5v18a0,0 0 0 1 0,0h-107.828125a0,0 0 0 1 0,0v-18a5,5 0 0 1 5,-5z" style="stroke: rgb(0, 0, 0); fill: rgb(51, 85, 68); stroke-width: 0;"/><text x="6" y="16" style="font-family: -apple-system, BlinkMacSystemFont, &quot;Segoe WPC&quot;, &quot;Segoe UI&quot;, Ubuntu, &quot;Droid Sans&quot;, sans-serif, &quot;PingFang SC&quot;; font-size: 11px; text-rendering: geometricprecision; user-select: none; fill: rgb(255, 255, 255);">embedding</text><title>Embedding</title></g><g class="node-argument-list" transform="translate(0,23)"><path d="M0,0h107.828125a0,0 0 0 1 0,0v15a5,5 0 0 1 -5,5h-97.828125a5,5 0 0 1 -5,-5v-15a0,0 0 0 1 0,0z" style="stroke: rgb(0, 0, 0); fill: rgb(255, 255, 255); stroke-width: 0;"/><g class="node-argument"><rect rx="3" ry="3" x="3" y="3" width="101.828125" height="14" style="fill: transparent;"/><text xml:space="preserve" x="6" y="14" style="font-family: -apple-system, BlinkMacSystemFont, &quot;Segoe WPC&quot;, &quot;Segoe UI&quot;, Ubuntu, &quot;Droid Sans&quot;, sans-serif, &quot;PingFang SC&quot;; font-size: 9px; font-weight: normal; text-rendering: geometricprecision; user-select: none;"><title>float32[70,80]</title><tspan style="font-weight: bold;">embeddings</tspan><tspan>〈70×80〉</tspan></text></g><line class="node" x1="0" x2="107.828125" y1="0" y2="0" style="stroke: rgb(51, 51, 51); fill: none; stroke-width: 1px;"/></g><path class="node node-border" d="M5,0h97.828125a5,5 0 0 1 5,5v33a5,5 0 0 1 -5,5h-97.828125a5,5 0 0 1 -5,-5v-33a5,5 0 0 1 5,-5z" style="stroke: rgb(51, 51, 51); fill: none; stroke-width: 1px;"/></g><g id="node-name-conv1d" class="node graph-node" style="" transform="translate(0,174)"><g class="node-item node-item-type node-item-type-layer" transform="translate(0,0)"><path d="M5,0h82.84375a5,5 0 0 1 5,5v18a0,0 0 0 1 0,0h-92.84375a0,0 0 0 1 0,0v-18a5,5 0 0 1 5,-5z" style="stroke: rgb(0, 0, 0); fill: rgb(51, 85, 136); stroke-width: 0;"/><text x="6" y="16" style="font-family: -apple-system, BlinkMacSystemFont, &quot;Segoe WPC&quot;, &quot;Segoe UI&quot;, Ubuntu, &quot;Droid Sans&quot;, sans-serif, &quot;PingFang SC&quot;; font-size: 11px; text-rendering: geometricprecision; user-select: none; fill: rgb(255, 255, 255);">conv1d</text><title>Conv1D</title></g><g class="node-argument-list" transform="translate(0,23)"><path d="M0,0h92.84375a0,0 0 0 1 0,0v34a0,0 0 0 1 0,0h-92.84375a0,0 0 0 1 0,0v-34a0,0 0 0 1 0,0z" style="stroke: rgb(0, 0, 0); fill: rgb(255, 255, 255); stroke-width: 0;"/><g class="node-argument"><rect rx="3" ry="3" x="3" y="3" width="86.84375" height="14" style="fill: transparent;"/><text xml:space="preserve" x="6" y="14" style="font-family: -apple-system, BlinkMacSystemFont, &quot;Segoe WPC&quot;, &quot;Segoe UI&quot;, Ubuntu, &quot;Droid Sans&quot;, sans-serif, &quot;PingFang SC&quot;; font-size: 9px; font-weight: normal; text-rendering: geometricprecision; user-select: none;"><title>float32[5,80,32]</title><tspan style="font-weight: bold;">kernel</tspan><tspan>〈5×80×32〉</tspan></text></g><g class="node-argument"><rect rx="3" ry="3" x="3" y="17" width="86.84375" height="14" style="fill: transparent;"/><text xml:space="preserve" x="6" y="28" style="font-family: -apple-system, BlinkMacSystemFont, &quot;Segoe WPC&quot;, &quot;Segoe UI&quot;, Ubuntu, &quot;Droid Sans&quot;, sans-serif, &quot;PingFang SC&quot;; font-size: 9px; font-weight: normal; text-rendering: geometricprecision; user-select: none;"><title>float32[32]</title><tspan style="font-weight: bold;">bias</tspan><tspan>〈32〉</tspan></text></g><line class="node" x1="0" x2="92.84375" y1="0" y2="0" style="stroke: rgb(51, 51, 51); fill: none; stroke-width: 1px;"/></g><g class="node-item node-item-type node-item-type-activation" transform="translate(0,57)"><path d="M0,0h92.84375a0,0 0 0 1 0,0v18a5,5 0 0 1 -5,5h-82.84375a5,5 0 0 1 -5,-5v-18a0,0 0 0 1 0,0z" style="stroke: rgb(0, 0, 0); fill: rgb(112, 41, 33); stroke-width: 0;"/><text x="6" y="16" style="font-family: -apple-system, BlinkMacSystemFont, &quot;Segoe WPC&quot;, &quot;Segoe UI&quot;, Ubuntu, &quot;Droid Sans&quot;, sans-serif, &quot;PingFang SC&quot;; font-size: 11px; text-rendering: geometricprecision; user-select: none; fill: rgb(255, 255, 255);">Activation</text></g><line class="node" x1="0" x2="92.84375" y1="57" y2="57" style="stroke: rgb(51, 51, 51); fill: none; stroke-width: 1px;"/><path class="node node-border" d="M5,0h82.84375a5,5 0 0 1 5,5v70a5,5 0 0 1 -5,5h-82.84375a5,5 0 0 1 -5,-5v-70a5,5 0 0 1 5,-5z" style="stroke: rgb(51, 51, 51); fill: none; stroke-width: 1px;"/></g><g id="node-name-conv1d_1" class="node graph-node" style="" transform="translate(112.84375,174)"><g class="node-item node-item-type node-item-type-layer" transform="translate(0,0)"><path d="M5,0h87.703125a5,5 0 0 1 5,5v18a0,0 0 0 1 0,0h-97.703125a0,0 0 0 1 0,0v-18a5,5 0 0 1 5,-5z" style="stroke: rgb(0, 0, 0); fill: rgb(51, 85, 136); stroke-width: 0;"/><text x="6" y="16" style="font-family: -apple-system, BlinkMacSystemFont, &quot;Segoe WPC&quot;, &quot;Segoe UI&quot;, Ubuntu, &quot;Droid Sans&quot;, sans-serif, &quot;PingFang SC&quot;; font-size: 11px; text-rendering: geometricprecision; user-select: none; fill: rgb(255, 255, 255);">conv1d_1</text><title>Conv1D</title></g><g class="node-argument-list" transform="translate(0,23)"><path d="M0,0h97.703125a0,0 0 0 1 0,0v34a0,0 0 0 1 0,0h-97.703125a0,0 0 0 1 0,0v-34a0,0 0 0 1 0,0z" style="stroke: rgb(0, 0, 0); fill: rgb(255, 255, 255); stroke-width: 0;"/><g class="node-argument"><rect rx="3" ry="3" x="3" y="3" width="91.703125" height="14" style="fill: transparent;"/><text xml:space="preserve" x="6" y="14" style="font-family: -apple-system, BlinkMacSystemFont, &quot;Segoe WPC&quot;, &quot;Segoe UI&quot;, Ubuntu, &quot;Droid Sans&quot;, sans-serif, &quot;PingFang SC&quot;; font-size: 9px; font-weight: normal; text-rendering: geometricprecision; user-select: none;"><title>float32[10,80,32]</title><tspan style="font-weight: bold;">kernel</tspan><tspan>〈10×80×32〉</tspan></text></g><g class="node-argument"><rect rx="3" ry="3" x="3" y="17" width="91.703125" height="14" style="fill: transparent;"/><text xml:space="preserve" x="6" y="28" style="font-family: -apple-system, BlinkMacSystemFont, &quot;Segoe WPC&quot;, &quot;Segoe UI&quot;, Ubuntu, &quot;Droid Sans&quot;, sans-serif, &quot;PingFang SC&quot;; font-size: 9px; font-weight: normal; text-rendering: geometricprecision; user-select: none;"><title>float32[32]</title><tspan style="font-weight: bold;">bias</tspan><tspan>〈32〉</tspan></text></g><line class="node" x1="0" x2="97.703125" y1="0" y2="0" style="stroke: rgb(51, 51, 51); fill: none; stroke-width: 1px;"/></g><g class="node-item node-item-type node-item-type-activation" transform="translate(0,57)"><path d="M0,0h97.703125a0,0 0 0 1 0,0v18a5,5 0 0 1 -5,5h-87.703125a5,5 0 0 1 -5,-5v-18a0,0 0 0 1 0,0z" style="stroke: rgb(0, 0, 0); fill: rgb(112, 41, 33); stroke-width: 0;"/><text x="6" y="16" style="font-family: -apple-system, BlinkMacSystemFont, &quot;Segoe WPC&quot;, &quot;Segoe UI&quot;, Ubuntu, &quot;Droid Sans&quot;, sans-serif, &quot;PingFang SC&quot;; font-size: 11px; text-rendering: geometricprecision; user-select: none; fill: rgb(255, 255, 255);">Activation</text></g><line class="node" x1="0" x2="97.703125" y1="57" y2="57" style="stroke: rgb(51, 51, 51); fill: none; stroke-width: 1px;"/><path class="node node-border" d="M5,0h87.703125a5,5 0 0 1 5,5v70a5,5 0 0 1 -5,5h-87.703125a5,5 0 0 1 -5,-5v-70a5,5 0 0 1 5,-5z" style="stroke: rgb(51, 51, 51); fill: none; stroke-width: 1px;"/></g><g id="node-name-conv1d_2" class="node graph-node" style="" transform="translate(232.953125,174)"><g class="node-item node-item-type node-item-type-layer" transform="translate(0,0)"><path d="M5,0h87.703125a5,5 0 0 1 5,5v18a0,0 0 0 1 0,0h-97.703125a0,0 0 0 1 0,0v-18a5,5 0 0 1 5,-5z" style="stroke: rgb(0, 0, 0); fill: rgb(51, 85, 136); stroke-width: 0;"/><text x="6" y="16" style="font-family: -apple-system, BlinkMacSystemFont, &quot;Segoe WPC&quot;, &quot;Segoe UI&quot;, Ubuntu, &quot;Droid Sans&quot;, sans-serif, &quot;PingFang SC&quot;; font-size: 11px; text-rendering: geometricprecision; user-select: none; fill: rgb(255, 255, 255);">conv1d_2</text><title>Conv1D</title></g><g class="node-argument-list" transform="translate(0,23)"><path d="M0,0h97.703125a0,0 0 0 1 0,0v34a0,0 0 0 1 0,0h-97.703125a0,0 0 0 1 0,0v-34a0,0 0 0 1 0,0z" style="stroke: rgb(0, 0, 0); fill: rgb(255, 255, 255); stroke-width: 0;"/><g class="node-argument"><rect rx="3" ry="3" x="3" y="3" width="91.703125" height="14" style="fill: transparent;"/><text xml:space="preserve" x="6" y="14" style="font-family: -apple-system, BlinkMacSystemFont, &quot;Segoe WPC&quot;, &quot;Segoe UI&quot;, Ubuntu, &quot;Droid Sans&quot;, sans-serif, &quot;PingFang SC&quot;; font-size: 9px; font-weight: normal; text-rendering: geometricprecision; user-select: none;"><title>float32[15,80,32]</title><tspan style="font-weight: bold;">kernel</tspan><tspan>〈15×80×32〉</tspan></text></g><g class="node-argument"><rect rx="3" ry="3" x="3" y="17" width="91.703125" height="14" style="fill: transparent;"/><text xml:space="preserve" x="6" y="28" style="font-family: -apple-system, BlinkMacSystemFont, &quot;Segoe WPC&quot;, &quot;Segoe UI&quot;, Ubuntu, &quot;Droid Sans&quot;, sans-serif, &quot;PingFang SC&quot;; font-size: 9px; font-weight: normal; text-rendering: geometricprecision; user-select: none;"><title>float32[32]</title><tspan style="font-weight: bold;">bias</tspan><tspan>〈32〉</tspan></text></g><line class="node" x1="0" x2="97.703125" y1="0" y2="0" style="stroke: rgb(51, 51, 51); fill: none; stroke-width: 1px;"/></g><g class="node-item node-item-type node-item-type-activation" transform="translate(0,57)"><path d="M0,0h97.703125a0,0 0 0 1 0,0v18a5,5 0 0 1 -5,5h-87.703125a5,5 0 0 1 -5,-5v-18a0,0 0 0 1 0,0z" style="stroke: rgb(0, 0, 0); fill: rgb(112, 41, 33); stroke-width: 0;"/><text x="6" y="16" style="font-family: -apple-system, BlinkMacSystemFont, &quot;Segoe WPC&quot;, &quot;Segoe UI&quot;, Ubuntu, &quot;Droid Sans&quot;, sans-serif, &quot;PingFang SC&quot;; font-size: 11px; text-rendering: geometricprecision; user-select: none; fill: rgb(255, 255, 255);">Activation</text></g><line class="node" x1="0" x2="97.703125" y1="57" y2="57" style="stroke: rgb(51, 51, 51); fill: none; stroke-width: 1px;"/><path class="node node-border" d="M5,0h87.703125a5,5 0 0 1 5,5v70a5,5 0 0 1 -5,5h-87.703125a5,5 0 0 1 -5,-5v-70a5,5 0 0 1 5,-5z" style="stroke: rgb(51, 51, 51); fill: none; stroke-width: 1px;"/></g><g id="node-name-max_pooling1d" class="node graph-node" style="" transform="translate(2.1796875,298)"><g class="node-item node-item-type node-item-type-pool" transform="translate(0,0)"><path d="M5,0h78.484375a5,5 0 0 1 5,5v13a5,5 0 0 1 -5,5h-78.484375a5,5 0 0 1 -5,-5v-13a5,5 0 0 1 5,-5z" style="stroke: rgb(0, 0, 0); fill: rgb(51, 85, 51); stroke-width: 0;"/><text x="6" y="16" style="font-family: -apple-system, BlinkMacSystemFont, &quot;Segoe WPC&quot;, &quot;Segoe UI&quot;, Ubuntu, &quot;Droid Sans&quot;, sans-serif, &quot;PingFang SC&quot;; font-size: 11px; text-rendering: geometricprecision; user-select: none; fill: rgb(255, 255, 255);">max_pooling1d</text><title>MaxPooling1D</title></g><path class="node node-border" d="M5,0h78.484375a5,5 0 0 1 5,5v13a5,5 0 0 1 -5,5h-78.484375a5,5 0 0 1 -5,-5v-13a5,5 0 0 1 5,-5z" style="stroke: rgb(51, 51, 51); fill: none; stroke-width: 1px;"/></g><g id="node-name-max_pooling1d_1" class="node graph-node" style="" transform="translate(112.203125,298)"><g class="node-item node-item-type node-item-type-pool" transform="translate(0,0)"><path d="M5,0h88.984375a5,5 0 0 1 5,5v13a5,5 0 0 1 -5,5h-88.984375a5,5 0 0 1 -5,-5v-13a5,5 0 0 1 5,-5z" style="stroke: rgb(0, 0, 0); fill: rgb(51, 85, 51); stroke-width: 0;"/><text x="6" y="16" style="font-family: -apple-system, BlinkMacSystemFont, &quot;Segoe WPC&quot;, &quot;Segoe UI&quot;, Ubuntu, &quot;Droid Sans&quot;, sans-serif, &quot;PingFang SC&quot;; font-size: 11px; text-rendering: geometricprecision; user-select: none; fill: rgb(255, 255, 255);">max_pooling1d_1</text><title>MaxPooling1D</title></g><path class="node node-border" d="M5,0h88.984375a5,5 0 0 1 5,5v13a5,5 0 0 1 -5,5h-88.984375a5,5 0 0 1 -5,-5v-13a5,5 0 0 1 5,-5z" style="stroke: rgb(51, 51, 51); fill: none; stroke-width: 1px;"/></g><g id="node-name-max_pooling1d_2" class="node graph-node" style="" transform="translate(232.281494140625,298)"><g class="node-item node-item-type node-item-type-pool" transform="translate(0,0)"><path d="M5,0h89.04638671875a5,5 0 0 1 5,5v13a5,5 0 0 1 -5,5h-89.04638671875a5,5 0 0 1 -5,-5v-13a5,5 0 0 1 5,-5z" style="stroke: rgb(0, 0, 0); fill: rgb(51, 85, 51); stroke-width: 0;"/><text x="6" y="16" style="font-family: -apple-system, BlinkMacSystemFont, &quot;Segoe WPC&quot;, &quot;Segoe UI&quot;, Ubuntu, &quot;Droid Sans&quot;, sans-serif, &quot;PingFang SC&quot;; font-size: 11px; text-rendering: geometricprecision; user-select: none; fill: rgb(255, 255, 255);">max_pooling1d_2</text><title>MaxPooling1D</title></g><path class="node node-border" d="M5,0h89.04638671875a5,5 0 0 1 5,5v13a5,5 0 0 1 -5,5h-89.04638671875a5,5 0 0 1 -5,-5v-13a5,5 0 0 1 5,-5z" style="stroke: rgb(51, 51, 51); fill: none; stroke-width: 1px;"/></g><g id="node-name-concatenate" class="node graph-node" style="" transform="translate(127.384033203125,365)"><g class="node-item node-item-type node-item-type-tensor" transform="translate(0,0)"><path d="M5,0h63.45849609375a5,5 0 0 1 5,5v13a5,5 0 0 1 -5,5h-63.45849609375a5,5 0 0 1 -5,-5v-13a5,5 0 0 1 5,-5z" style="stroke: rgb(0, 0, 0); fill: rgb(89, 66, 59); stroke-width: 0;"/><text x="6" y="16" style="font-family: -apple-system, BlinkMacSystemFont, &quot;Segoe WPC&quot;, &quot;Segoe UI&quot;, Ubuntu, &quot;Droid Sans&quot;, sans-serif, &quot;PingFang SC&quot;; font-size: 11px; text-rendering: geometricprecision; user-select: none; fill: rgb(255, 255, 255);">concatenate</text><title>Concatenate</title></g><path class="node node-border" d="M5,0h63.45849609375a5,5 0 0 1 5,5v13a5,5 0 0 1 -5,5h-63.45849609375a5,5 0 0 1 -5,-5v-13a5,5 0 0 1 5,-5z" style="stroke: rgb(51, 51, 51); fill: none; stroke-width: 1px;"/></g><g id="node-name-flatten" class="node graph-node" style="" transform="translate(141.54296875,432)"><g class="node-item node-item-type node-item-type-shape" transform="translate(0,0)"><path d="M5,0h35.140625a5,5 0 0 1 5,5v13a5,5 0 0 1 -5,5h-35.140625a5,5 0 0 1 -5,-5v-13a5,5 0 0 1 5,-5z" style="stroke: rgb(0, 0, 0); fill: rgb(108, 79, 71); stroke-width: 0;"/><text x="6" y="16" style="font-family: -apple-system, BlinkMacSystemFont, &quot;Segoe WPC&quot;, &quot;Segoe UI&quot;, Ubuntu, &quot;Droid Sans&quot;, sans-serif, &quot;PingFang SC&quot;; font-size: 11px; text-rendering: geometricprecision; user-select: none; fill: rgb(255, 255, 255);">flatten</text><title>Flatten</title></g><path class="node node-border" d="M5,0h35.140625a5,5 0 0 1 5,5v13a5,5 0 0 1 -5,5h-35.140625a5,5 0 0 1 -5,-5v-13a5,5 0 0 1 5,-5z" style="stroke: rgb(51, 51, 51); fill: none; stroke-width: 1px;"/></g><g id="node-name-dropout" class="node graph-node" style="" transform="translate(137.171142578125,499)"><g class="node-item node-item-type node-item-type-dropout" transform="translate(0,0)"><path d="M5,0h43.88427734375a5,5 0 0 1 5,5v13a5,5 0 0 1 -5,5h-43.88427734375a5,5 0 0 1 -5,-5v-13a5,5 0 0 1 5,-5z" style="stroke: rgb(0, 0, 0); fill: rgb(69, 71, 112); stroke-width: 0;"/><text x="6" y="16" style="font-family: -apple-system, BlinkMacSystemFont, &quot;Segoe WPC&quot;, &quot;Segoe UI&quot;, Ubuntu, &quot;Droid Sans&quot;, sans-serif, &quot;PingFang SC&quot;; font-size: 11px; text-rendering: geometricprecision; user-select: none; fill: rgb(255, 255, 255);">dropout</text><title>Dropout</title></g><path class="node node-border" d="M5,0h43.88427734375a5,5 0 0 1 5,5v13a5,5 0 0 1 -5,5h-43.88427734375a5,5 0 0 1 -5,-5v-13a5,5 0 0 1 5,-5z" style="stroke: rgb(51, 51, 51); fill: none; stroke-width: 1px;"/></g><g id="node-name-dense" class="node graph-node" style="" transform="translate(113.48828125,566)"><g class="node-item node-item-type node-item-type-layer" transform="translate(0,0)"><path d="M5,0h91.25a5,5 0 0 1 5,5v18a0,0 0 0 1 0,0h-101.25a0,0 0 0 1 0,0v-18a5,5 0 0 1 5,-5z" style="stroke: rgb(0, 0, 0); fill: rgb(51, 85, 136); stroke-width: 0;"/><text x="6" y="16" style="font-family: -apple-system, BlinkMacSystemFont, &quot;Segoe WPC&quot;, &quot;Segoe UI&quot;, Ubuntu, &quot;Droid Sans&quot;, sans-serif, &quot;PingFang SC&quot;; font-size: 11px; text-rendering: geometricprecision; user-select: none; fill: rgb(255, 255, 255);">dense</text><title>Dense</title></g><g class="node-argument-list" transform="translate(0,23)"><path d="M0,0h101.25a0,0 0 0 1 0,0v34a0,0 0 0 1 0,0h-101.25a0,0 0 0 1 0,0v-34a0,0 0 0 1 0,0z" style="stroke: rgb(0, 0, 0); fill: rgb(255, 255, 255); stroke-width: 0;"/><g class="node-argument"><rect rx="3" ry="3" x="3" y="3" width="95.25" height="14" style="fill: transparent;"/><text xml:space="preserve" x="6" y="14" style="font-family: -apple-system, BlinkMacSystemFont, &quot;Segoe WPC&quot;, &quot;Segoe UI&quot;, Ubuntu, &quot;Droid Sans&quot;, sans-serif, &quot;PingFang SC&quot;; font-size: 9px; font-weight: normal; text-rendering: geometricprecision; user-select: none;"><title>float32[8736,1024]</title><tspan style="font-weight: bold;">kernel</tspan><tspan>〈8736×1024〉</tspan></text></g><g class="node-argument"><rect rx="3" ry="3" x="3" y="17" width="95.25" height="14" style="fill: transparent;"/><text xml:space="preserve" x="6" y="28" style="font-family: -apple-system, BlinkMacSystemFont, &quot;Segoe WPC&quot;, &quot;Segoe UI&quot;, Ubuntu, &quot;Droid Sans&quot;, sans-serif, &quot;PingFang SC&quot;; font-size: 9px; font-weight: normal; text-rendering: geometricprecision; user-select: none;"><title>float32[1024]</title><tspan style="font-weight: bold;">bias</tspan><tspan>〈1024〉</tspan></text></g><line class="node" x1="0" x2="101.25" y1="0" y2="0" style="stroke: rgb(51, 51, 51); fill: none; stroke-width: 1px;"/></g><g class="node-item node-item-type node-item-type-activation" transform="translate(0,57)"><path d="M0,0h101.25a0,0 0 0 1 0,0v18a5,5 0 0 1 -5,5h-91.25a5,5 0 0 1 -5,-5v-18a0,0 0 0 1 0,0z" style="stroke: rgb(0, 0, 0); fill: rgb(112, 41, 33); stroke-width: 0;"/><text x="6" y="16" style="font-family: -apple-system, BlinkMacSystemFont, &quot;Segoe WPC&quot;, &quot;Segoe UI&quot;, Ubuntu, &quot;Droid Sans&quot;, sans-serif, &quot;PingFang SC&quot;; font-size: 11px; text-rendering: geometricprecision; user-select: none; fill: rgb(255, 255, 255);">Activation</text></g><line class="node" x1="0" x2="101.25" y1="57" y2="57" style="stroke: rgb(51, 51, 51); fill: none; stroke-width: 1px;"/><path class="node node-border" d="M5,0h91.25a5,5 0 0 1 5,5v70a5,5 0 0 1 -5,5h-91.25a5,5 0 0 1 -5,-5v-70a5,5 0 0 1 5,-5z" style="stroke: rgb(51, 51, 51); fill: none; stroke-width: 1px;"/></g><g id="node-name-dense_1" class="node graph-node" style="" transform="translate(115.91796875,690)"><g class="node-item node-item-type node-item-type-layer" transform="translate(0,0)"><path d="M5,0h86.390625a5,5 0 0 1 5,5v18a0,0 0 0 1 0,0h-96.390625a0,0 0 0 1 0,0v-18a5,5 0 0 1 5,-5z" style="stroke: rgb(0, 0, 0); fill: rgb(51, 85, 136); stroke-width: 0;"/><text x="6" y="16" style="font-family: -apple-system, BlinkMacSystemFont, &quot;Segoe WPC&quot;, &quot;Segoe UI&quot;, Ubuntu, &quot;Droid Sans&quot;, sans-serif, &quot;PingFang SC&quot;; font-size: 11px; text-rendering: geometricprecision; user-select: none; fill: rgb(255, 255, 255);">dense_1</text><title>Dense</title></g><g class="node-argument-list" transform="translate(0,23)"><path d="M0,0h96.390625a0,0 0 0 1 0,0v34a0,0 0 0 1 0,0h-96.390625a0,0 0 0 1 0,0v-34a0,0 0 0 1 0,0z" style="stroke: rgb(0, 0, 0); fill: rgb(255, 255, 255); stroke-width: 0;"/><g class="node-argument"><rect rx="3" ry="3" x="3" y="3" width="90.390625" height="14" style="fill: transparent;"/><text xml:space="preserve" x="6" y="14" style="font-family: -apple-system, BlinkMacSystemFont, &quot;Segoe WPC&quot;, &quot;Segoe UI&quot;, Ubuntu, &quot;Droid Sans&quot;, sans-serif, &quot;PingFang SC&quot;; font-size: 9px; font-weight: normal; text-rendering: geometricprecision; user-select: none;"><title>float32[1024,128]</title><tspan style="font-weight: bold;">kernel</tspan><tspan>〈1024×128〉</tspan></text></g><g class="node-argument"><rect rx="3" ry="3" x="3" y="17" width="90.390625" height="14" style="fill: transparent;"/><text xml:space="preserve" x="6" y="28" style="font-family: -apple-system, BlinkMacSystemFont, &quot;Segoe WPC&quot;, &quot;Segoe UI&quot;, Ubuntu, &quot;Droid Sans&quot;, sans-serif, &quot;PingFang SC&quot;; font-size: 9px; font-weight: normal; text-rendering: geometricprecision; user-select: none;"><title>float32[128]</title><tspan style="font-weight: bold;">bias</tspan><tspan>〈128〉</tspan></text></g><line class="node" x1="0" x2="96.390625" y1="0" y2="0" style="stroke: rgb(51, 51, 51); fill: none; stroke-width: 1px;"/></g><g class="node-item node-item-type node-item-type-activation" transform="translate(0,57)"><path d="M0,0h96.390625a0,0 0 0 1 0,0v18a5,5 0 0 1 -5,5h-86.390625a5,5 0 0 1 -5,-5v-18a0,0 0 0 1 0,0z" style="stroke: rgb(0, 0, 0); fill: rgb(112, 41, 33); stroke-width: 0;"/><text x="6" y="16" style="font-family: -apple-system, BlinkMacSystemFont, &quot;Segoe WPC&quot;, &quot;Segoe UI&quot;, Ubuntu, &quot;Droid Sans&quot;, sans-serif, &quot;PingFang SC&quot;; font-size: 11px; text-rendering: geometricprecision; user-select: none; fill: rgb(255, 255, 255);">Activation</text></g><line class="node" x1="0" x2="96.390625" y1="57" y2="57" style="stroke: rgb(51, 51, 51); fill: none; stroke-width: 1px;"/><path class="node node-border" d="M5,0h86.390625a5,5 0 0 1 5,5v70a5,5 0 0 1 -5,5h-86.390625a5,5 0 0 1 -5,-5v-70a5,5 0 0 1 5,-5z" style="stroke: rgb(51, 51, 51); fill: none; stroke-width: 1px;"/></g><g id="node-name-dense_2" class="node graph-node" style="" transform="translate(123.19140625,814)"><g class="node-item node-item-type node-item-type-layer" transform="translate(0,0)"><path d="M5,0h71.84375a5,5 0 0 1 5,5v18a0,0 0 0 1 0,0h-81.84375a0,0 0 0 1 0,0v-18a5,5 0 0 1 5,-5z" style="stroke: rgb(0, 0, 0); fill: rgb(51, 85, 136); stroke-width: 0;"/><text x="6" y="16" style="font-family: -apple-system, BlinkMacSystemFont, &quot;Segoe WPC&quot;, &quot;Segoe UI&quot;, Ubuntu, &quot;Droid Sans&quot;, sans-serif, &quot;PingFang SC&quot;; font-size: 11px; text-rendering: geometricprecision; user-select: none; fill: rgb(255, 255, 255);">dense_2</text><title>Dense</title></g><g class="node-argument-list" transform="translate(0,23)"><path d="M0,0h81.84375a0,0 0 0 1 0,0v34a0,0 0 0 1 0,0h-81.84375a0,0 0 0 1 0,0v-34a0,0 0 0 1 0,0z" style="stroke: rgb(0, 0, 0); fill: rgb(255, 255, 255); stroke-width: 0;"/><g class="node-argument"><rect rx="3" ry="3" x="3" y="3" width="75.84375" height="14" style="fill: transparent;"/><text xml:space="preserve" x="6" y="14" style="font-family: -apple-system, BlinkMacSystemFont, &quot;Segoe WPC&quot;, &quot;Segoe UI&quot;, Ubuntu, &quot;Droid Sans&quot;, sans-serif, &quot;PingFang SC&quot;; font-size: 9px; font-weight: normal; text-rendering: geometricprecision; user-select: none;"><title>float32[128,1]</title><tspan style="font-weight: bold;">kernel</tspan><tspan>〈128×1〉</tspan></text></g><g class="node-argument"><rect rx="3" ry="3" x="3" y="17" width="75.84375" height="14" style="fill: transparent;"/><text xml:space="preserve" x="6" y="28" style="font-family: -apple-system, BlinkMacSystemFont, &quot;Segoe WPC&quot;, &quot;Segoe UI&quot;, Ubuntu, &quot;Droid Sans&quot;, sans-serif, &quot;PingFang SC&quot;; font-size: 9px; font-weight: normal; text-rendering: geometricprecision; user-select: none;"><title>float32[1]</title><tspan style="font-weight: bold;">bias</tspan><tspan>〈1〉</tspan></text></g><line class="node" x1="0" x2="81.84375" y1="0" y2="0" style="stroke: rgb(51, 51, 51); fill: none; stroke-width: 1px;"/></g><g class="node-item node-item-type node-item-type-activation" transform="translate(0,57)"><path d="M0,0h81.84375a0,0 0 0 1 0,0v18a5,5 0 0 1 -5,5h-71.84375a5,5 0 0 1 -5,-5v-18a0,0 0 0 1 0,0z" style="stroke: rgb(0, 0, 0); fill: rgb(112, 41, 33); stroke-width: 0;"/><text x="6" y="16" style="font-family: -apple-system, BlinkMacSystemFont, &quot;Segoe WPC&quot;, &quot;Segoe UI&quot;, Ubuntu, &quot;Droid Sans&quot;, sans-serif, &quot;PingFang SC&quot;; font-size: 11px; text-rendering: geometricprecision; user-select: none; fill: rgb(255, 255, 255);">Activation</text></g><line class="node" x1="0" x2="81.84375" y1="57" y2="57" style="stroke: rgb(51, 51, 51); fill: none; stroke-width: 1px;"/><path class="node node-border" d="M5,0h71.84375a5,5 0 0 1 5,5v70a5,5 0 0 1 -5,5h-71.84375a5,5 0 0 1 -5,-5v-70a5,5 0 0 1 5,-5z" style="stroke: rgb(51, 51, 51); fill: none; stroke-width: 1px;"/></g><g class="node" style="" transform="translate(137.39306640625,938)"><g class="node-item graph-item-output" transform="translate(0,0)"><path d="M5,0h43.4404296875a5,5 0 0 1 5,5v13a5,5 0 0 1 -5,5h-43.4404296875a5,5 0 0 1 -5,-5v-13a5,5 0 0 1 5,-5z" style="stroke: rgb(0, 0, 0); fill: rgb(238, 238, 238); stroke-width: 0;"/><text x="6" y="16" style="font-family: -apple-system, BlinkMacSystemFont, &quot;Segoe WPC&quot;, &quot;Segoe UI&quot;, Ubuntu, &quot;Droid Sans&quot;, sans-serif, &quot;PingFang SC&quot;; font-size: 11px; text-rendering: geometricprecision; user-select: none;">dense_2</text></g><path class="node node-border" d="M5,0h43.4404296875a5,5 0 0 1 5,5v13a5,5 0 0 1 -5,5h-43.4404296875a5,5 0 0 1 -5,-5v-13a5,5 0 0 1 5,-5z" style="stroke: rgb(51, 51, 51); fill: none; stroke-width: 1px;"/></g></g></g></svg>